<?xml version="1.0" encoding="utf-8" standalone="no"?>
<!DOCTYPE svg PUBLIC "-//W3C//DTD SVG 1.1//EN"
  "http://www.w3.org/Graphics/SVG/1.1/DTD/svg11.dtd">
<!-- Created with matplotlib (https://matplotlib.org/) -->
<svg height="251.77375pt" version="1.1" viewBox="0 0 886.73875 251.77375" width="886.73875pt" xmlns="http://www.w3.org/2000/svg" xmlns:xlink="http://www.w3.org/1999/xlink">
 <defs>
  <style type="text/css">
*{stroke-linecap:butt;stroke-linejoin:round;}
  </style>
 </defs>
 <g id="figure_1">
  <g id="patch_1">
   <path d="M 0 251.77375 
L 886.73875 251.77375 
L 886.73875 0 
L 0 0 
z
" style="fill:none;"/>
  </g>
  <g id="axes_1">
   <g id="patch_2">
    <path d="M 42.53875 228.96 
L 879.53875 228.96 
L 879.53875 7.2 
L 42.53875 7.2 
z
" style="fill:none;"/>
   </g>
   <g id="PolyCollection_1">
    <path clip-path="url(#p93e0a0e0cf)" d="M 42.53875 205.571296 
L 42.53875 228.96 
L 50.993295 228.96 
L 59.447841 228.96 
L 67.902386 228.96 
L 76.356932 228.96 
L 84.811477 228.96 
L 93.266023 228.96 
L 101.720568 228.96 
L 110.175114 228.96 
L 118.629659 228.96 
L 127.084205 228.96 
L 135.53875 228.96 
L 143.993295 228.96 
L 152.447841 228.96 
L 160.902386 228.96 
L 169.356932 228.96 
L 177.811477 228.96 
L 186.266023 228.96 
L 194.720568 228.96 
L 203.175114 228.96 
L 211.629659 228.96 
L 220.084205 228.96 
L 228.53875 228.96 
L 236.993295 228.96 
L 245.447841 228.96 
L 253.902386 228.96 
L 262.356932 228.96 
L 270.811477 228.96 
L 279.266023 228.96 
L 287.720568 228.96 
L 296.175114 228.96 
L 304.629659 228.96 
L 313.084205 228.96 
L 321.53875 228.96 
L 329.993295 228.96 
L 338.447841 228.96 
L 346.902386 228.96 
L 355.356932 228.96 
L 363.811477 228.96 
L 372.266023 228.96 
L 380.720568 228.96 
L 389.175114 228.96 
L 397.629659 228.96 
L 406.084205 228.96 
L 414.53875 228.96 
L 422.993295 228.96 
L 431.447841 228.96 
L 439.902386 228.96 
L 448.356932 228.96 
L 456.811477 228.96 
L 465.266023 228.96 
L 473.720568 228.96 
L 482.175114 228.96 
L 490.629659 228.96 
L 499.084205 228.96 
L 507.53875 228.96 
L 515.993295 228.96 
L 524.447841 228.96 
L 532.902386 228.96 
L 541.356932 228.96 
L 549.811477 228.96 
L 558.266023 228.96 
L 566.720568 228.96 
L 575.175114 228.96 
L 583.629659 228.96 
L 592.084205 228.96 
L 600.53875 228.96 
L 608.993295 228.96 
L 617.447841 228.96 
L 625.902386 228.96 
L 634.356932 228.96 
L 642.811477 228.96 
L 651.266023 228.96 
L 659.720568 228.96 
L 668.175114 228.96 
L 676.629659 228.96 
L 685.084205 228.96 
L 693.53875 228.96 
L 701.993295 228.96 
L 710.447841 228.96 
L 718.902386 228.96 
L 727.356932 228.96 
L 735.811477 228.96 
L 744.266023 228.96 
L 752.720568 228.96 
L 761.175114 228.96 
L 769.629659 228.96 
L 778.084205 228.96 
L 786.53875 228.96 
L 794.993295 228.96 
L 803.447841 228.96 
L 811.902386 228.96 
L 820.356932 228.96 
L 828.811477 228.96 
L 837.266023 228.96 
L 845.720568 228.96 
L 854.175114 228.96 
L 862.629659 228.96 
L 871.084205 228.96 
L 879.53875 228.96 
L 879.53875 198.788571 
L 879.53875 198.788571 
L 871.084205 184.755349 
L 862.629659 198.554684 
L 854.175114 189.666977 
L 845.720568 203.934086 
L 837.266023 193.876944 
L 828.811477 184.755349 
L 820.356932 195.74804 
L 811.902386 184.521462 
L 803.447841 198.554684 
L 794.993295 188.263654 
L 786.53875 198.08691 
L 778.084205 195.280266 
L 769.629659 189.900864 
L 761.175114 193.175282 
L 752.720568 196.917475 
L 744.266023 195.046379 
L 735.811477 191.77196 
L 727.356932 188.263654 
L 718.902386 191.070299 
L 710.447841 193.876944 
L 701.993295 198.08691 
L 693.53875 197.151362 
L 685.084205 202.06299 
L 676.629659 196.683588 
L 668.175114 196.683588 
L 659.720568 204.40186 
L 651.266023 189.199203 
L 642.811477 205.337409 
L 634.356932 202.06299 
L 625.902386 193.409169 
L 617.447841 196.917475 
L 608.993295 189.900864 
L 600.53875 197.619136 
L 592.084205 197.151362 
L 583.629659 191.070299 
L 575.175114 194.344718 
L 566.720568 194.578605 
L 558.266023 204.40186 
L 549.811477 194.344718 
L 541.356932 200.659668 
L 532.902386 194.344718 
L 524.447841 192.239734 
L 515.993295 194.578605 
L 507.53875 199.022458 
L 499.084205 194.812492 
L 490.629659 203.700199 
L 482.175114 203.934086 
L 473.720568 194.110831 
L 465.266023 196.683588 
L 456.811477 199.490233 
L 448.356932 200.425781 
L 439.902386 196.917475 
L 431.447841 197.853023 
L 422.993295 201.361329 
L 414.53875 200.191894 
L 406.084205 198.08691 
L 397.629659 203.466312 
L 389.175114 198.320797 
L 380.720568 205.571296 
L 372.266023 205.103522 
L 363.811477 202.998538 
L 355.356932 201.127442 
L 346.902386 197.151362 
L 338.447841 203.934086 
L 329.993295 203.232425 
L 321.53875 205.103522 
L 313.084205 205.571296 
L 304.629659 201.361329 
L 296.175114 199.72412 
L 287.720568 199.72412 
L 279.266023 204.869635 
L 270.811477 205.337409 
L 262.356932 202.530764 
L 253.902386 205.337409 
L 245.447841 203.700199 
L 236.993295 202.998538 
L 228.53875 205.337409 
L 220.084205 202.764651 
L 211.629659 200.893555 
L 203.175114 203.934086 
L 194.720568 205.103522 
L 186.266023 205.103522 
L 177.811477 203.466312 
L 169.356932 202.06299 
L 160.902386 204.635748 
L 152.447841 204.167973 
L 143.993295 205.337409 
L 135.53875 205.103522 
L 127.084205 204.635748 
L 118.629659 205.103522 
L 110.175114 204.40186 
L 101.720568 205.571296 
L 93.266023 204.869635 
L 84.811477 204.869635 
L 76.356932 205.571296 
L 67.902386 205.571296 
L 59.447841 205.571296 
L 50.993295 205.337409 
L 42.53875 205.571296 
z
" style="fill:#f28037;fill-opacity:0.4;"/>
   </g>
   <g id="PolyCollection_2">
    <path clip-path="url(#p93e0a0e0cf)" d="M 42.53875 182.182591 
L 42.53875 205.571296 
L 50.993295 205.337409 
L 59.447841 205.571296 
L 67.902386 205.571296 
L 76.356932 205.571296 
L 84.811477 204.869635 
L 93.266023 204.869635 
L 101.720568 205.571296 
L 110.175114 204.40186 
L 118.629659 205.103522 
L 127.084205 204.635748 
L 135.53875 205.103522 
L 143.993295 205.337409 
L 152.447841 204.167973 
L 160.902386 204.635748 
L 169.356932 202.06299 
L 177.811477 203.466312 
L 186.266023 205.103522 
L 194.720568 205.103522 
L 203.175114 203.934086 
L 211.629659 200.893555 
L 220.084205 202.764651 
L 228.53875 205.337409 
L 236.993295 202.998538 
L 245.447841 203.700199 
L 253.902386 205.337409 
L 262.356932 202.530764 
L 270.811477 205.337409 
L 279.266023 204.869635 
L 287.720568 199.72412 
L 296.175114 199.72412 
L 304.629659 201.361329 
L 313.084205 205.571296 
L 321.53875 205.103522 
L 329.993295 203.232425 
L 338.447841 203.934086 
L 346.902386 197.151362 
L 355.356932 201.127442 
L 363.811477 202.998538 
L 372.266023 205.103522 
L 380.720568 205.571296 
L 389.175114 198.320797 
L 397.629659 203.466312 
L 406.084205 198.08691 
L 414.53875 200.191894 
L 422.993295 201.361329 
L 431.447841 197.853023 
L 439.902386 196.917475 
L 448.356932 200.425781 
L 456.811477 199.490233 
L 465.266023 196.683588 
L 473.720568 194.110831 
L 482.175114 203.934086 
L 490.629659 203.700199 
L 499.084205 194.812492 
L 507.53875 199.022458 
L 515.993295 194.578605 
L 524.447841 192.239734 
L 532.902386 194.344718 
L 541.356932 200.659668 
L 549.811477 194.344718 
L 558.266023 204.40186 
L 566.720568 194.578605 
L 575.175114 194.344718 
L 583.629659 191.070299 
L 592.084205 197.151362 
L 600.53875 197.619136 
L 608.993295 189.900864 
L 617.447841 196.917475 
L 625.902386 193.409169 
L 634.356932 202.06299 
L 642.811477 205.337409 
L 651.266023 189.199203 
L 659.720568 204.40186 
L 668.175114 196.683588 
L 676.629659 196.683588 
L 685.084205 202.06299 
L 693.53875 197.151362 
L 701.993295 198.08691 
L 710.447841 193.876944 
L 718.902386 191.070299 
L 727.356932 188.263654 
L 735.811477 191.77196 
L 744.266023 195.046379 
L 752.720568 196.917475 
L 761.175114 193.175282 
L 769.629659 189.900864 
L 778.084205 195.280266 
L 786.53875 198.08691 
L 794.993295 188.263654 
L 803.447841 198.554684 
L 811.902386 184.521462 
L 820.356932 195.74804 
L 828.811477 184.755349 
L 837.266023 193.876944 
L 845.720568 203.934086 
L 854.175114 189.666977 
L 862.629659 198.554684 
L 871.084205 184.755349 
L 879.53875 198.788571 
L 879.53875 159.729435 
L 879.53875 159.729435 
L 871.084205 140.316811 
L 862.629659 161.132757 
L 854.175114 166.278272 
L 845.720568 161.600532 
L 837.266023 148.736744 
L 828.811477 157.390565 
L 820.356932 155.285581 
L 811.902386 161.132757 
L 803.447841 156.922791 
L 794.993295 164.173289 
L 786.53875 164.641063 
L 778.084205 170.722126 
L 769.629659 160.197209 
L 761.175114 163.003854 
L 752.720568 156.688904 
L 744.266023 167.915482 
L 735.811477 155.285581 
L 727.356932 157.624452 
L 718.902386 157.390565 
L 710.447841 153.414485 
L 701.993295 170.488239 
L 693.53875 172.82711 
L 685.084205 170.254352 
L 676.629659 170.956013 
L 668.175114 157.156678 
L 659.720568 165.810498 
L 651.266023 150.841728 
L 642.811477 172.593223 
L 634.356932 174.230432 
L 625.902386 168.85103 
L 617.447841 171.891561 
L 608.993295 152.24505 
L 600.53875 162.068306 
L 592.084205 168.617143 
L 583.629659 161.132757 
L 575.175114 165.576611 
L 566.720568 164.407176 
L 558.266023 178.440399 
L 549.811477 167.681595 
L 541.356932 167.915482 
L 532.902386 162.769967 
L 524.447841 156.688904 
L 515.993295 163.237741 
L 507.53875 168.85103 
L 499.084205 168.617143 
L 490.629659 175.16598 
L 482.175114 170.722126 
L 473.720568 165.342724 
L 465.266023 169.318804 
L 456.811477 172.82711 
L 448.356932 166.746047 
L 439.902386 167.447708 
L 431.447841 173.060997 
L 422.993295 174.230432 
L 414.53875 174.464319 
L 406.084205 169.786578 
L 397.629659 170.254352 
L 389.175114 169.318804 
L 380.720568 174.932093 
L 372.266023 180.077608 
L 363.811477 172.359336 
L 355.356932 169.552691 
L 346.902386 173.294884 
L 338.447841 177.738738 
L 329.993295 174.464319 
L 321.53875 180.311495 
L 313.084205 176.803189 
L 304.629659 175.16598 
L 296.175114 169.318804 
L 287.720568 174.230432 
L 279.266023 181.48093 
L 270.811477 176.335415 
L 262.356932 177.972625 
L 253.902386 181.013156 
L 245.447841 175.16598 
L 236.993295 179.14206 
L 228.53875 181.247043 
L 220.084205 176.803189 
L 211.629659 175.867641 
L 203.175114 177.037076 
L 194.720568 180.311495 
L 186.266023 180.545382 
L 177.811477 177.270963 
L 169.356932 176.803189 
L 160.902386 179.375947 
L 152.447841 178.206512 
L 143.993295 179.609834 
L 135.53875 181.247043 
L 127.084205 179.375947 
L 118.629659 181.013156 
L 110.175114 180.545382 
L 101.720568 180.545382 
L 93.266023 180.545382 
L 84.811477 180.545382 
L 76.356932 182.182591 
L 67.902386 181.48093 
L 59.447841 181.714817 
L 50.993295 181.948704 
L 42.53875 182.182591 
z
" style="fill:#f28037;fill-opacity:0.6;"/>
   </g>
   <g id="PolyCollection_3">
    <path clip-path="url(#p93e0a0e0cf)" d="M 42.53875 158.793887 
L 42.53875 182.182591 
L 50.993295 181.948704 
L 59.447841 181.714817 
L 67.902386 181.48093 
L 76.356932 182.182591 
L 84.811477 180.545382 
L 93.266023 180.545382 
L 101.720568 180.545382 
L 110.175114 180.545382 
L 118.629659 181.013156 
L 127.084205 179.375947 
L 135.53875 181.247043 
L 143.993295 179.609834 
L 152.447841 178.206512 
L 160.902386 179.375947 
L 169.356932 176.803189 
L 177.811477 177.270963 
L 186.266023 180.545382 
L 194.720568 180.311495 
L 203.175114 177.037076 
L 211.629659 175.867641 
L 220.084205 176.803189 
L 228.53875 181.247043 
L 236.993295 179.14206 
L 245.447841 175.16598 
L 253.902386 181.013156 
L 262.356932 177.972625 
L 270.811477 176.335415 
L 279.266023 181.48093 
L 287.720568 174.230432 
L 296.175114 169.318804 
L 304.629659 175.16598 
L 313.084205 176.803189 
L 321.53875 180.311495 
L 329.993295 174.464319 
L 338.447841 177.738738 
L 346.902386 173.294884 
L 355.356932 169.552691 
L 363.811477 172.359336 
L 372.266023 180.077608 
L 380.720568 174.932093 
L 389.175114 169.318804 
L 397.629659 170.254352 
L 406.084205 169.786578 
L 414.53875 174.464319 
L 422.993295 174.230432 
L 431.447841 173.060997 
L 439.902386 167.447708 
L 448.356932 166.746047 
L 456.811477 172.82711 
L 465.266023 169.318804 
L 473.720568 165.342724 
L 482.175114 170.722126 
L 490.629659 175.16598 
L 499.084205 168.617143 
L 507.53875 168.85103 
L 515.993295 163.237741 
L 524.447841 156.688904 
L 532.902386 162.769967 
L 541.356932 167.915482 
L 549.811477 167.681595 
L 558.266023 178.440399 
L 566.720568 164.407176 
L 575.175114 165.576611 
L 583.629659 161.132757 
L 592.084205 168.617143 
L 600.53875 162.068306 
L 608.993295 152.24505 
L 617.447841 171.891561 
L 625.902386 168.85103 
L 634.356932 174.230432 
L 642.811477 172.593223 
L 651.266023 150.841728 
L 659.720568 165.810498 
L 668.175114 157.156678 
L 676.629659 170.956013 
L 685.084205 170.254352 
L 693.53875 172.82711 
L 701.993295 170.488239 
L 710.447841 153.414485 
L 718.902386 157.390565 
L 727.356932 157.624452 
L 735.811477 155.285581 
L 744.266023 167.915482 
L 752.720568 156.688904 
L 761.175114 163.003854 
L 769.629659 160.197209 
L 778.084205 170.722126 
L 786.53875 164.641063 
L 794.993295 164.173289 
L 803.447841 156.922791 
L 811.902386 161.132757 
L 820.356932 155.285581 
L 828.811477 157.390565 
L 837.266023 148.736744 
L 845.720568 161.600532 
L 854.175114 166.278272 
L 862.629659 161.132757 
L 871.084205 140.316811 
L 879.53875 159.729435 
L 879.53875 117.39588 
L 879.53875 117.39588 
L 871.084205 94.708837 
L 862.629659 127.219136 
L 854.175114 124.178605 
L 845.720568 116.694219 
L 837.266023 122.307508 
L 828.811477 134.00186 
L 820.356932 113.653688 
L 811.902386 116.694219 
L 803.447841 124.178605 
L 794.993295 125.114153 
L 786.53875 132.832425 
L 778.084205 144.994551 
L 769.629659 127.219136 
L 761.175114 132.364651 
L 752.720568 131.429103 
L 744.266023 140.316811 
L 735.811477 119.03309 
L 727.356932 129.791894 
L 718.902386 132.130764 
L 710.447841 117.629767 
L 701.993295 138.211827 
L 693.53875 148.502857 
L 685.084205 144.526777 
L 676.629659 132.364651 
L 668.175114 127.219136 
L 659.720568 133.534086 
L 651.266023 125.815814 
L 642.811477 136.808505 
L 634.356932 144.059003 
L 625.902386 134.703522 
L 617.447841 137.042392 
L 608.993295 119.734751 
L 600.53875 125.581927 
L 592.084205 132.130764 
L 583.629659 129.32412 
L 575.175114 127.453023 
L 566.720568 132.364651 
L 558.266023 150.140066 
L 549.811477 130.493555 
L 541.356932 137.97794 
L 532.902386 127.68691 
L 524.447841 124.646379 
L 515.993295 131.896877 
L 507.53875 137.042392 
L 499.084205 144.526777 
L 490.629659 146.631761 
L 482.175114 136.106844 
L 473.720568 131.429103 
L 465.266023 138.679601 
L 456.811477 142.889568 
L 448.356932 132.130764 
L 439.902386 133.534086 
L 431.447841 147.099535 
L 422.993295 146.631761 
L 414.53875 144.994551 
L 406.084205 142.889568 
L 397.629659 144.059003 
L 389.175114 137.510166 
L 380.720568 146.865648 
L 372.266023 153.414485 
L 363.811477 141.95402 
L 355.356932 142.187907 
L 346.902386 149.204518 
L 338.447841 151.309502 
L 329.993295 148.736744 
L 321.53875 151.309502 
L 313.084205 148.035083 
L 304.629659 146.397874 
L 296.175114 142.187907 
L 287.720568 144.760664 
L 279.266023 152.478937 
L 270.811477 151.777276 
L 262.356932 152.946711 
L 253.902386 152.478937 
L 245.447841 146.163987 
L 236.993295 155.051694 
L 228.53875 156.922791 
L 220.084205 148.502857 
L 211.629659 151.075615 
L 203.175114 153.414485 
L 194.720568 155.753355 
L 186.266023 156.22113 
L 177.811477 153.648372 
L 169.356932 151.543389 
L 160.902386 155.285581 
L 152.447841 152.24505 
L 143.993295 153.414485 
L 135.53875 155.753355 
L 127.084205 154.817807 
L 118.629659 156.922791 
L 110.175114 157.156678 
L 101.720568 155.753355 
L 93.266023 156.22113 
L 84.811477 156.455017 
L 76.356932 158.56 
L 67.902386 158.092226 
L 59.447841 157.858339 
L 50.993295 158.326113 
L 42.53875 158.793887 
z
" style="fill:#f28037;fill-opacity:0.8;"/>
   </g>
   <g id="PolyCollection_4">
    <path clip-path="url(#p93e0a0e0cf)" d="M 42.53875 88.627774 
L 42.53875 158.793887 
L 50.993295 158.326113 
L 59.447841 157.858339 
L 67.902386 158.092226 
L 76.356932 158.56 
L 84.811477 156.455017 
L 93.266023 156.22113 
L 101.720568 155.753355 
L 110.175114 157.156678 
L 118.629659 156.922791 
L 127.084205 154.817807 
L 135.53875 155.753355 
L 143.993295 153.414485 
L 152.447841 152.24505 
L 160.902386 155.285581 
L 169.356932 151.543389 
L 177.811477 153.648372 
L 186.266023 156.22113 
L 194.720568 155.753355 
L 203.175114 153.414485 
L 211.629659 151.075615 
L 220.084205 148.502857 
L 228.53875 156.922791 
L 236.993295 155.051694 
L 245.447841 146.163987 
L 253.902386 152.478937 
L 262.356932 152.946711 
L 270.811477 151.777276 
L 279.266023 152.478937 
L 287.720568 144.760664 
L 296.175114 142.187907 
L 304.629659 146.397874 
L 313.084205 148.035083 
L 321.53875 151.309502 
L 329.993295 148.736744 
L 338.447841 151.309502 
L 346.902386 149.204518 
L 355.356932 142.187907 
L 363.811477 141.95402 
L 372.266023 153.414485 
L 380.720568 146.865648 
L 389.175114 137.510166 
L 397.629659 144.059003 
L 406.084205 142.889568 
L 414.53875 144.994551 
L 422.993295 146.631761 
L 431.447841 147.099535 
L 439.902386 133.534086 
L 448.356932 132.130764 
L 456.811477 142.889568 
L 465.266023 138.679601 
L 473.720568 131.429103 
L 482.175114 136.106844 
L 490.629659 146.631761 
L 499.084205 144.526777 
L 507.53875 137.042392 
L 515.993295 131.896877 
L 524.447841 124.646379 
L 532.902386 127.68691 
L 541.356932 137.97794 
L 549.811477 130.493555 
L 558.266023 150.140066 
L 566.720568 132.364651 
L 575.175114 127.453023 
L 583.629659 129.32412 
L 592.084205 132.130764 
L 600.53875 125.581927 
L 608.993295 119.734751 
L 617.447841 137.042392 
L 625.902386 134.703522 
L 634.356932 144.059003 
L 642.811477 136.808505 
L 651.266023 125.815814 
L 659.720568 133.534086 
L 668.175114 127.219136 
L 676.629659 132.364651 
L 685.084205 144.526777 
L 693.53875 148.502857 
L 701.993295 138.211827 
L 710.447841 117.629767 
L 718.902386 132.130764 
L 727.356932 129.791894 
L 735.811477 119.03309 
L 744.266023 140.316811 
L 752.720568 131.429103 
L 761.175114 132.364651 
L 769.629659 127.219136 
L 778.084205 144.994551 
L 786.53875 132.832425 
L 794.993295 125.114153 
L 803.447841 124.178605 
L 811.902386 116.694219 
L 820.356932 113.653688 
L 828.811477 134.00186 
L 837.266023 122.307508 
L 845.720568 116.694219 
L 854.175114 124.178605 
L 862.629659 127.219136 
L 871.084205 94.708837 
L 879.53875 117.39588 
L 879.53875 40.914817 
L 879.53875 40.914817 
L 871.084205 17.76 
L 862.629659 50.738073 
L 854.175114 44.189236 
L 845.720568 39.043721 
L 837.266023 43.253688 
L 828.811477 58.92412 
L 820.356932 37.640399 
L 811.902386 44.65701 
L 803.447841 47.229767 
L 794.993295 51.439734 
L 786.53875 56.351362 
L 778.084205 73.659003 
L 769.629659 51.907508 
L 761.175114 59.859668 
L 752.720568 58.456346 
L 744.266023 67.57794 
L 735.811477 48.399203 
L 727.356932 57.988571 
L 718.902386 58.92412 
L 710.447841 41.850365 
L 701.993295 67.110166 
L 693.53875 75.062326 
L 685.084205 69.682924 
L 676.629659 57.28691 
L 668.175114 53.310831 
L 659.720568 62.666312 
L 651.266023 55.415814 
L 642.811477 63.60186 
L 634.356932 72.723455 
L 625.902386 61.496877 
L 617.447841 65.472957 
L 608.993295 47.697542 
L 600.53875 54.94804 
L 592.084205 60.093555 
L 583.629659 57.28691 
L 575.175114 56.117475 
L 566.720568 60.561329 
L 558.266023 79.740066 
L 549.811477 60.327442 
L 541.356932 66.642392 
L 532.902386 56.585249 
L 524.447841 53.778605 
L 515.993295 61.730764 
L 507.53875 66.642392 
L 499.084205 74.360664 
L 490.629659 127.920797 
L 482.175114 112.71814 
L 473.720568 108.040399 
L 465.266023 112.952027 
L 456.811477 66.642392 
L 448.356932 59.391894 
L 439.902386 54.714153 
L 431.447841 74.594551 
L 422.993295 70.150698 
L 414.53875 68.045714 
L 406.084205 62.900199 
L 397.629659 64.771296 
L 389.175114 61.26299 
L 380.720568 67.57794 
L 372.266023 80.441728 
L 363.811477 66.174618 
L 355.356932 68.513488 
L 346.902386 72.957342 
L 338.447841 73.89289 
L 329.993295 76.465648 
L 321.53875 77.167309 
L 313.084205 72.021794 
L 304.629659 74.594551 
L 296.175114 67.57794 
L 287.720568 71.320133 
L 279.266023 76.699535 
L 270.811477 80.909502 
L 262.356932 82.312824 
L 253.902386 81.84505 
L 245.447841 71.55402 
L 236.993295 82.546711 
L 228.53875 84.651694 
L 220.084205 78.336744 
L 211.629659 78.804518 
L 203.175114 83.014485 
L 194.720568 81.84505 
L 186.266023 85.119468 
L 177.811477 81.611163 
L 169.356932 78.102857 
L 160.902386 82.780598 
L 152.447841 81.143389 
L 143.993295 83.248372 
L 135.53875 85.119468 
L 127.084205 82.312824 
L 118.629659 86.288904 
L 110.175114 86.522791 
L 101.720568 84.417807 
L 93.266023 84.651694 
L 84.811477 86.055017 
L 76.356932 87.692226 
L 67.902386 87.224452 
L 59.447841 87.224452 
L 50.993295 88.16 
L 42.53875 88.627774 
z
" style="fill:#f28037;"/>
   </g>
   <g id="matplotlib.axis_1">
    <g id="text_1">
     <!-- Time (s) -->
     <defs>
      <path d="M -0.296875 72.90625 
L 61.375 72.90625 
L 61.375 64.59375 
L 35.5 64.59375 
L 35.5 0 
L 25.59375 0 
L 25.59375 64.59375 
L -0.296875 64.59375 
z
" id="DejaVuSans-84"/>
      <path d="M 9.421875 54.6875 
L 18.40625 54.6875 
L 18.40625 0 
L 9.421875 0 
z
M 9.421875 75.984375 
L 18.40625 75.984375 
L 18.40625 64.59375 
L 9.421875 64.59375 
z
" id="DejaVuSans-105"/>
      <path d="M 52 44.1875 
Q 55.375 50.25 60.0625 53.125 
Q 64.75 56 71.09375 56 
Q 79.640625 56 84.28125 50.015625 
Q 88.921875 44.046875 88.921875 33.015625 
L 88.921875 0 
L 79.890625 0 
L 79.890625 32.71875 
Q 79.890625 40.578125 77.09375 44.375 
Q 74.3125 48.1875 68.609375 48.1875 
Q 61.625 48.1875 57.5625 43.546875 
Q 53.515625 38.921875 53.515625 30.90625 
L 53.515625 0 
L 44.484375 0 
L 44.484375 32.71875 
Q 44.484375 40.625 41.703125 44.40625 
Q 38.921875 48.1875 33.109375 48.1875 
Q 26.21875 48.1875 22.15625 43.53125 
Q 18.109375 38.875 18.109375 30.90625 
L 18.109375 0 
L 9.078125 0 
L 9.078125 54.6875 
L 18.109375 54.6875 
L 18.109375 46.1875 
Q 21.1875 51.21875 25.484375 53.609375 
Q 29.78125 56 35.6875 56 
Q 41.65625 56 45.828125 52.96875 
Q 50 49.953125 52 44.1875 
z
" id="DejaVuSans-109"/>
      <path d="M 56.203125 29.59375 
L 56.203125 25.203125 
L 14.890625 25.203125 
Q 15.484375 15.921875 20.484375 11.0625 
Q 25.484375 6.203125 34.421875 6.203125 
Q 39.59375 6.203125 44.453125 7.46875 
Q 49.3125 8.734375 54.109375 11.28125 
L 54.109375 2.78125 
Q 49.265625 0.734375 44.1875 -0.34375 
Q 39.109375 -1.421875 33.890625 -1.421875 
Q 20.796875 -1.421875 13.15625 6.1875 
Q 5.515625 13.8125 5.515625 26.8125 
Q 5.515625 40.234375 12.765625 48.109375 
Q 20.015625 56 32.328125 56 
Q 43.359375 56 49.78125 48.890625 
Q 56.203125 41.796875 56.203125 29.59375 
z
M 47.21875 32.234375 
Q 47.125 39.59375 43.09375 43.984375 
Q 39.0625 48.390625 32.421875 48.390625 
Q 24.90625 48.390625 20.390625 44.140625 
Q 15.875 39.890625 15.1875 32.171875 
z
" id="DejaVuSans-101"/>
      <path id="DejaVuSans-32"/>
      <path d="M 31 75.875 
Q 24.46875 64.65625 21.28125 53.65625 
Q 18.109375 42.671875 18.109375 31.390625 
Q 18.109375 20.125 21.3125 9.0625 
Q 24.515625 -2 31 -13.1875 
L 23.1875 -13.1875 
Q 15.875 -1.703125 12.234375 9.375 
Q 8.59375 20.453125 8.59375 31.390625 
Q 8.59375 42.28125 12.203125 53.3125 
Q 15.828125 64.359375 23.1875 75.875 
z
" id="DejaVuSans-40"/>
      <path d="M 44.28125 53.078125 
L 44.28125 44.578125 
Q 40.484375 46.53125 36.375 47.5 
Q 32.28125 48.484375 27.875 48.484375 
Q 21.1875 48.484375 17.84375 46.4375 
Q 14.5 44.390625 14.5 40.28125 
Q 14.5 37.15625 16.890625 35.375 
Q 19.28125 33.59375 26.515625 31.984375 
L 29.59375 31.296875 
Q 39.15625 29.25 43.1875 25.515625 
Q 47.21875 21.78125 47.21875 15.09375 
Q 47.21875 7.46875 41.1875 3.015625 
Q 35.15625 -1.421875 24.609375 -1.421875 
Q 20.21875 -1.421875 15.453125 -0.5625 
Q 10.6875 0.296875 5.421875 2 
L 5.421875 11.28125 
Q 10.40625 8.6875 15.234375 7.390625 
Q 20.0625 6.109375 24.8125 6.109375 
Q 31.15625 6.109375 34.5625 8.28125 
Q 37.984375 10.453125 37.984375 14.40625 
Q 37.984375 18.0625 35.515625 20.015625 
Q 33.0625 21.96875 24.703125 23.78125 
L 21.578125 24.515625 
Q 13.234375 26.265625 9.515625 29.90625 
Q 5.8125 33.546875 5.8125 39.890625 
Q 5.8125 47.609375 11.28125 51.796875 
Q 16.75 56 26.8125 56 
Q 31.78125 56 36.171875 55.265625 
Q 40.578125 54.546875 44.28125 53.078125 
z
" id="DejaVuSans-115"/>
      <path d="M 8.015625 75.875 
L 15.828125 75.875 
Q 23.140625 64.359375 26.78125 53.3125 
Q 30.421875 42.28125 30.421875 31.390625 
Q 30.421875 20.453125 26.78125 9.375 
Q 23.140625 -1.703125 15.828125 -13.1875 
L 8.015625 -13.1875 
Q 14.5 -2 17.703125 9.0625 
Q 20.90625 20.125 20.90625 31.390625 
Q 20.90625 42.671875 17.703125 53.65625 
Q 14.5 64.65625 8.015625 75.875 
z
" id="DejaVuSans-41"/>
     </defs>
     <g transform="translate(436.644063 242.078125)scale(0.12 -0.12)">
      <use xlink:href="#DejaVuSans-84"/>
      <use x="57.958984" xlink:href="#DejaVuSans-105"/>
      <use x="85.742188" xlink:href="#DejaVuSans-109"/>
      <use x="183.154297" xlink:href="#DejaVuSans-101"/>
      <use x="244.677734" xlink:href="#DejaVuSans-32"/>
      <use x="276.464844" xlink:href="#DejaVuSans-40"/>
      <use x="315.478516" xlink:href="#DejaVuSans-115"/>
      <use x="367.578125" xlink:href="#DejaVuSans-41"/>
     </g>
    </g>
   </g>
   <g id="matplotlib.axis_2">
    <g id="ytick_1">
     <g id="line2d_1">
      <defs>
       <path d="M 0 0 
L -3.5 0 
" id="m8268d0837a" style="stroke:#000000;stroke-width:0.8;"/>
      </defs>
      <g>
       <use style="stroke:#000000;stroke-width:0.8;" x="42.53875" xlink:href="#m8268d0837a" y="228.96"/>
      </g>
     </g>
     <g id="text_2">
      <!-- 0 -->
      <defs>
       <path d="M 31.78125 66.40625 
Q 24.171875 66.40625 20.328125 58.90625 
Q 16.5 51.421875 16.5 36.375 
Q 16.5 21.390625 20.328125 13.890625 
Q 24.171875 6.390625 31.78125 6.390625 
Q 39.453125 6.390625 43.28125 13.890625 
Q 47.125 21.390625 47.125 36.375 
Q 47.125 51.421875 43.28125 58.90625 
Q 39.453125 66.40625 31.78125 66.40625 
z
M 31.78125 74.21875 
Q 44.046875 74.21875 50.515625 64.515625 
Q 56.984375 54.828125 56.984375 36.375 
Q 56.984375 17.96875 50.515625 8.265625 
Q 44.046875 -1.421875 31.78125 -1.421875 
Q 19.53125 -1.421875 13.0625 8.265625 
Q 6.59375 17.96875 6.59375 36.375 
Q 6.59375 54.828125 13.0625 64.515625 
Q 19.53125 74.21875 31.78125 74.21875 
z
" id="DejaVuSans-48"/>
      </defs>
      <g transform="translate(29.17625 232.759219)scale(0.1 -0.1)">
       <use xlink:href="#DejaVuSans-48"/>
      </g>
     </g>
    </g>
    <g id="ytick_2">
     <g id="line2d_2">
      <g>
       <use style="stroke:#000000;stroke-width:0.8;" x="42.53875" xlink:href="#m8268d0837a" y="182.182591"/>
      </g>
     </g>
     <g id="text_3">
      <!-- 20 -->
      <defs>
       <path d="M 19.1875 8.296875 
L 53.609375 8.296875 
L 53.609375 0 
L 7.328125 0 
L 7.328125 8.296875 
Q 12.9375 14.109375 22.625 23.890625 
Q 32.328125 33.6875 34.8125 36.53125 
Q 39.546875 41.84375 41.421875 45.53125 
Q 43.3125 49.21875 43.3125 52.78125 
Q 43.3125 58.59375 39.234375 62.25 
Q 35.15625 65.921875 28.609375 65.921875 
Q 23.96875 65.921875 18.8125 64.3125 
Q 13.671875 62.703125 7.8125 59.421875 
L 7.8125 69.390625 
Q 13.765625 71.78125 18.9375 73 
Q 24.125 74.21875 28.421875 74.21875 
Q 39.75 74.21875 46.484375 68.546875 
Q 53.21875 62.890625 53.21875 53.421875 
Q 53.21875 48.921875 51.53125 44.890625 
Q 49.859375 40.875 45.40625 35.40625 
Q 44.1875 33.984375 37.640625 27.21875 
Q 31.109375 20.453125 19.1875 8.296875 
z
" id="DejaVuSans-50"/>
      </defs>
      <g transform="translate(22.81375 185.98181)scale(0.1 -0.1)">
       <use xlink:href="#DejaVuSans-50"/>
       <use x="63.623047" xlink:href="#DejaVuSans-48"/>
      </g>
     </g>
    </g>
    <g id="ytick_3">
     <g id="line2d_3">
      <g>
       <use style="stroke:#000000;stroke-width:0.8;" x="42.53875" xlink:href="#m8268d0837a" y="135.405183"/>
      </g>
     </g>
     <g id="text_4">
      <!-- 40 -->
      <defs>
       <path d="M 37.796875 64.3125 
L 12.890625 25.390625 
L 37.796875 25.390625 
z
M 35.203125 72.90625 
L 47.609375 72.90625 
L 47.609375 25.390625 
L 58.015625 25.390625 
L 58.015625 17.1875 
L 47.609375 17.1875 
L 47.609375 0 
L 37.796875 0 
L 37.796875 17.1875 
L 4.890625 17.1875 
L 4.890625 26.703125 
z
" id="DejaVuSans-52"/>
      </defs>
      <g transform="translate(22.81375 139.204401)scale(0.1 -0.1)">
       <use xlink:href="#DejaVuSans-52"/>
       <use x="63.623047" xlink:href="#DejaVuSans-48"/>
      </g>
     </g>
    </g>
    <g id="ytick_4">
     <g id="line2d_4">
      <g>
       <use style="stroke:#000000;stroke-width:0.8;" x="42.53875" xlink:href="#m8268d0837a" y="88.627774"/>
      </g>
     </g>
     <g id="text_5">
      <!-- 60 -->
      <defs>
       <path d="M 33.015625 40.375 
Q 26.375 40.375 22.484375 35.828125 
Q 18.609375 31.296875 18.609375 23.390625 
Q 18.609375 15.53125 22.484375 10.953125 
Q 26.375 6.390625 33.015625 6.390625 
Q 39.65625 6.390625 43.53125 10.953125 
Q 47.40625 15.53125 47.40625 23.390625 
Q 47.40625 31.296875 43.53125 35.828125 
Q 39.65625 40.375 33.015625 40.375 
z
M 52.59375 71.296875 
L 52.59375 62.3125 
Q 48.875 64.0625 45.09375 64.984375 
Q 41.3125 65.921875 37.59375 65.921875 
Q 27.828125 65.921875 22.671875 59.328125 
Q 17.53125 52.734375 16.796875 39.40625 
Q 19.671875 43.65625 24.015625 45.921875 
Q 28.375 48.1875 33.59375 48.1875 
Q 44.578125 48.1875 50.953125 41.515625 
Q 57.328125 34.859375 57.328125 23.390625 
Q 57.328125 12.15625 50.6875 5.359375 
Q 44.046875 -1.421875 33.015625 -1.421875 
Q 20.359375 -1.421875 13.671875 8.265625 
Q 6.984375 17.96875 6.984375 36.375 
Q 6.984375 53.65625 15.1875 63.9375 
Q 23.390625 74.21875 37.203125 74.21875 
Q 40.921875 74.21875 44.703125 73.484375 
Q 48.484375 72.75 52.59375 71.296875 
z
" id="DejaVuSans-54"/>
      </defs>
      <g transform="translate(22.81375 92.426993)scale(0.1 -0.1)">
       <use xlink:href="#DejaVuSans-54"/>
       <use x="63.623047" xlink:href="#DejaVuSans-48"/>
      </g>
     </g>
    </g>
    <g id="ytick_5">
     <g id="line2d_5">
      <g>
       <use style="stroke:#000000;stroke-width:0.8;" x="42.53875" xlink:href="#m8268d0837a" y="41.850365"/>
      </g>
     </g>
     <g id="text_6">
      <!-- 80 -->
      <defs>
       <path d="M 31.78125 34.625 
Q 24.75 34.625 20.71875 30.859375 
Q 16.703125 27.09375 16.703125 20.515625 
Q 16.703125 13.921875 20.71875 10.15625 
Q 24.75 6.390625 31.78125 6.390625 
Q 38.8125 6.390625 42.859375 10.171875 
Q 46.921875 13.96875 46.921875 20.515625 
Q 46.921875 27.09375 42.890625 30.859375 
Q 38.875 34.625 31.78125 34.625 
z
M 21.921875 38.8125 
Q 15.578125 40.375 12.03125 44.71875 
Q 8.5 49.078125 8.5 55.328125 
Q 8.5 64.0625 14.71875 69.140625 
Q 20.953125 74.21875 31.78125 74.21875 
Q 42.671875 74.21875 48.875 69.140625 
Q 55.078125 64.0625 55.078125 55.328125 
Q 55.078125 49.078125 51.53125 44.71875 
Q 48 40.375 41.703125 38.8125 
Q 48.828125 37.15625 52.796875 32.3125 
Q 56.78125 27.484375 56.78125 20.515625 
Q 56.78125 9.90625 50.3125 4.234375 
Q 43.84375 -1.421875 31.78125 -1.421875 
Q 19.734375 -1.421875 13.25 4.234375 
Q 6.78125 9.90625 6.78125 20.515625 
Q 6.78125 27.484375 10.78125 32.3125 
Q 14.796875 37.15625 21.921875 38.8125 
z
M 18.3125 54.390625 
Q 18.3125 48.734375 21.84375 45.5625 
Q 25.390625 42.390625 31.78125 42.390625 
Q 38.140625 42.390625 41.71875 45.5625 
Q 45.3125 48.734375 45.3125 54.390625 
Q 45.3125 60.0625 41.71875 63.234375 
Q 38.140625 66.40625 31.78125 66.40625 
Q 25.390625 66.40625 21.84375 63.234375 
Q 18.3125 60.0625 18.3125 54.390625 
z
" id="DejaVuSans-56"/>
      </defs>
      <g transform="translate(22.81375 45.649584)scale(0.1 -0.1)">
       <use xlink:href="#DejaVuSans-56"/>
       <use x="63.623047" xlink:href="#DejaVuSans-48"/>
      </g>
     </g>
    </g>
    <g id="text_7">
     <!-- Requests -->
     <defs>
      <path d="M 44.390625 34.1875 
Q 47.5625 33.109375 50.5625 29.59375 
Q 53.5625 26.078125 56.59375 19.921875 
L 66.609375 0 
L 56 0 
L 46.6875 18.703125 
Q 43.0625 26.03125 39.671875 28.421875 
Q 36.28125 30.8125 30.421875 30.8125 
L 19.671875 30.8125 
L 19.671875 0 
L 9.8125 0 
L 9.8125 72.90625 
L 32.078125 72.90625 
Q 44.578125 72.90625 50.734375 67.671875 
Q 56.890625 62.453125 56.890625 51.90625 
Q 56.890625 45.015625 53.6875 40.46875 
Q 50.484375 35.9375 44.390625 34.1875 
z
M 19.671875 64.796875 
L 19.671875 38.921875 
L 32.078125 38.921875 
Q 39.203125 38.921875 42.84375 42.21875 
Q 46.484375 45.515625 46.484375 51.90625 
Q 46.484375 58.296875 42.84375 61.546875 
Q 39.203125 64.796875 32.078125 64.796875 
z
" id="DejaVuSans-82"/>
      <path d="M 14.796875 27.296875 
Q 14.796875 17.390625 18.875 11.75 
Q 22.953125 6.109375 30.078125 6.109375 
Q 37.203125 6.109375 41.296875 11.75 
Q 45.40625 17.390625 45.40625 27.296875 
Q 45.40625 37.203125 41.296875 42.84375 
Q 37.203125 48.484375 30.078125 48.484375 
Q 22.953125 48.484375 18.875 42.84375 
Q 14.796875 37.203125 14.796875 27.296875 
z
M 45.40625 8.203125 
Q 42.578125 3.328125 38.25 0.953125 
Q 33.9375 -1.421875 27.875 -1.421875 
Q 17.96875 -1.421875 11.734375 6.484375 
Q 5.515625 14.40625 5.515625 27.296875 
Q 5.515625 40.1875 11.734375 48.09375 
Q 17.96875 56 27.875 56 
Q 33.9375 56 38.25 53.625 
Q 42.578125 51.265625 45.40625 46.390625 
L 45.40625 54.6875 
L 54.390625 54.6875 
L 54.390625 -20.796875 
L 45.40625 -20.796875 
z
" id="DejaVuSans-113"/>
      <path d="M 8.5 21.578125 
L 8.5 54.6875 
L 17.484375 54.6875 
L 17.484375 21.921875 
Q 17.484375 14.15625 20.5 10.265625 
Q 23.53125 6.390625 29.59375 6.390625 
Q 36.859375 6.390625 41.078125 11.03125 
Q 45.3125 15.671875 45.3125 23.6875 
L 45.3125 54.6875 
L 54.296875 54.6875 
L 54.296875 0 
L 45.3125 0 
L 45.3125 8.40625 
Q 42.046875 3.421875 37.71875 1 
Q 33.40625 -1.421875 27.6875 -1.421875 
Q 18.265625 -1.421875 13.375 4.4375 
Q 8.5 10.296875 8.5 21.578125 
z
M 31.109375 56 
z
" id="DejaVuSans-117"/>
      <path d="M 18.3125 70.21875 
L 18.3125 54.6875 
L 36.8125 54.6875 
L 36.8125 47.703125 
L 18.3125 47.703125 
L 18.3125 18.015625 
Q 18.3125 11.328125 20.140625 9.421875 
Q 21.96875 7.515625 27.59375 7.515625 
L 36.8125 7.515625 
L 36.8125 0 
L 27.59375 0 
Q 17.1875 0 13.234375 3.875 
Q 9.28125 7.765625 9.28125 18.015625 
L 9.28125 47.703125 
L 2.6875 47.703125 
L 2.6875 54.6875 
L 9.28125 54.6875 
L 9.28125 70.21875 
z
" id="DejaVuSans-116"/>
     </defs>
     <g transform="translate(16.318125 145.577813)rotate(-90)scale(0.12 -0.12)">
      <use xlink:href="#DejaVuSans-82"/>
      <use x="64.982422" xlink:href="#DejaVuSans-101"/>
      <use x="126.505859" xlink:href="#DejaVuSans-113"/>
      <use x="189.982422" xlink:href="#DejaVuSans-117"/>
      <use x="253.361328" xlink:href="#DejaVuSans-101"/>
      <use x="314.884766" xlink:href="#DejaVuSans-115"/>
      <use x="366.984375" xlink:href="#DejaVuSans-116"/>
      <use x="406.193359" xlink:href="#DejaVuSans-115"/>
     </g>
    </g>
   </g>
   <g id="patch_3">
    <path d="M 42.53875 228.96 
L 42.53875 7.2 
" style="fill:none;stroke:#000000;stroke-linecap:square;stroke-linejoin:miter;stroke-width:0.8;"/>
   </g>
   <g id="patch_4">
    <path d="M 879.53875 228.96 
L 879.53875 7.2 
" style="fill:none;stroke:#000000;stroke-linecap:square;stroke-linejoin:miter;stroke-width:0.8;"/>
   </g>
   <g id="patch_5">
    <path d="M 42.53875 228.96 
L 879.53875 228.96 
" style="fill:none;stroke:#000000;stroke-linecap:square;stroke-linejoin:miter;stroke-width:0.8;"/>
   </g>
   <g id="patch_6">
    <path d="M 42.53875 7.2 
L 879.53875 7.2 
" style="fill:none;stroke:#000000;stroke-linecap:square;stroke-linejoin:miter;stroke-width:0.8;"/>
   </g>
  </g>
 </g>
 <defs>
  <clipPath id="p93e0a0e0cf">
   <rect height="221.76" width="837" x="42.53875" y="7.2"/>
  </clipPath>
 </defs>
</svg>
