<?xml version="1.0" encoding="utf-8" standalone="no"?>
<!DOCTYPE svg PUBLIC "-//W3C//DTD SVG 1.1//EN"
  "http://www.w3.org/Graphics/SVG/1.1/DTD/svg11.dtd">
<!-- Created with matplotlib (https://matplotlib.org/) -->
<svg height="251.77375pt" version="1.1" viewBox="0 0 886.73875 251.77375" width="886.73875pt" xmlns="http://www.w3.org/2000/svg" xmlns:xlink="http://www.w3.org/1999/xlink">
 <defs>
  <style type="text/css">
*{stroke-linecap:butt;stroke-linejoin:round;}
  </style>
 </defs>
 <g id="figure_1">
  <g id="patch_1">
   <path d="M 0 251.77375 
L 886.73875 251.77375 
L 886.73875 0 
L 0 0 
z
" style="fill:none;"/>
  </g>
  <g id="axes_1">
   <g id="patch_2">
    <path d="M 42.53875 228.96 
L 879.53875 228.96 
L 879.53875 7.2 
L 42.53875 7.2 
z
" style="fill:none;"/>
   </g>
   <g id="PolyCollection_1">
    <path clip-path="url(#p3d36b91e60)" d="M 42.53875 151.973366 
L 42.53875 228.96 
L 50.993295 228.96 
L 59.447841 228.96 
L 67.902386 228.96 
L 76.356932 228.96 
L 84.811477 228.96 
L 93.266023 228.96 
L 101.720568 228.96 
L 110.175114 228.96 
L 118.629659 228.96 
L 127.084205 228.96 
L 135.53875 228.96 
L 143.993295 228.96 
L 152.447841 228.96 
L 160.902386 228.96 
L 169.356932 228.96 
L 177.811477 228.96 
L 186.266023 228.96 
L 194.720568 228.96 
L 203.175114 228.96 
L 211.629659 228.96 
L 220.084205 228.96 
L 228.53875 228.96 
L 236.993295 228.96 
L 245.447841 228.96 
L 253.902386 228.96 
L 262.356932 228.96 
L 270.811477 228.96 
L 279.266023 228.96 
L 287.720568 228.96 
L 296.175114 228.96 
L 304.629659 228.96 
L 313.084205 228.96 
L 321.53875 228.96 
L 329.993295 228.96 
L 338.447841 228.96 
L 346.902386 228.96 
L 355.356932 228.96 
L 363.811477 228.96 
L 372.266023 228.96 
L 380.720568 228.96 
L 389.175114 228.96 
L 397.629659 228.96 
L 406.084205 228.96 
L 414.53875 228.96 
L 422.993295 228.96 
L 431.447841 228.96 
L 439.902386 228.96 
L 448.356932 228.96 
L 456.811477 228.96 
L 465.266023 228.96 
L 473.720568 228.96 
L 482.175114 228.96 
L 490.629659 228.96 
L 499.084205 228.96 
L 507.53875 228.96 
L 515.993295 228.96 
L 524.447841 228.96 
L 532.902386 228.96 
L 541.356932 228.96 
L 549.811477 228.96 
L 558.266023 228.96 
L 566.720568 228.96 
L 575.175114 228.96 
L 583.629659 228.96 
L 592.084205 228.96 
L 600.53875 228.96 
L 608.993295 228.96 
L 617.447841 228.96 
L 625.902386 228.96 
L 634.356932 228.96 
L 642.811477 228.96 
L 651.266023 228.96 
L 659.720568 228.96 
L 668.175114 228.96 
L 676.629659 228.96 
L 685.084205 228.96 
L 693.53875 228.96 
L 701.993295 228.96 
L 710.447841 228.96 
L 718.902386 228.96 
L 727.356932 228.96 
L 735.811477 228.96 
L 744.266023 228.96 
L 752.720568 228.96 
L 761.175114 228.96 
L 769.629659 228.96 
L 778.084205 228.96 
L 786.53875 228.96 
L 794.993295 228.96 
L 803.447841 228.96 
L 811.902386 228.96 
L 820.356932 228.96 
L 828.811477 228.96 
L 837.266023 228.96 
L 845.720568 228.96 
L 854.175114 228.96 
L 862.629659 228.96 
L 871.084205 228.96 
L 879.53875 228.96 
L 879.53875 145.044569 
L 879.53875 145.044569 
L 871.084205 144.531324 
L 862.629659 145.044569 
L 854.175114 141.195237 
L 845.720568 143.761458 
L 837.266023 142.221725 
L 828.811477 146.584301 
L 820.356932 145.557813 
L 811.902386 149.920389 
L 803.447841 144.531324 
L 794.993295 148.124034 
L 786.53875 145.044569 
L 778.084205 150.690255 
L 769.629659 146.327679 
L 761.175114 149.407145 
L 752.720568 148.8939 
L 744.266023 149.150522 
L 735.811477 151.460122 
L 727.356932 150.177011 
L 718.902386 148.637278 
L 710.447841 145.814435 
L 701.993295 150.946877 
L 693.53875 148.380656 
L 685.084205 146.840923 
L 676.629659 146.584301 
L 668.175114 147.867412 
L 659.720568 151.203499 
L 651.266023 151.716744 
L 642.811477 148.637278 
L 634.356932 150.690255 
L 625.902386 148.637278 
L 617.447841 150.433633 
L 608.993295 149.920389 
L 600.53875 151.460122 
L 592.084205 149.920389 
L 583.629659 149.920389 
L 575.175114 150.690255 
L 566.720568 150.177011 
L 558.266023 151.716744 
L 549.811477 151.973366 
L 541.356932 150.690255 
L 532.902386 150.946877 
L 524.447841 151.203499 
L 515.993295 151.973366 
L 507.53875 151.716744 
L 499.084205 151.973366 
L 490.629659 208.430231 
L 482.175114 203.297789 
L 473.720568 203.297789 
L 465.266023 200.731567 
L 456.811477 145.301191 
L 448.356932 149.150522 
L 439.902386 142.478348 
L 431.447841 149.407145 
L 422.993295 145.044569 
L 414.53875 144.531324 
L 406.084205 141.195237 
L 397.629659 141.965103 
L 389.175114 145.301191 
L 380.720568 141.965103 
L 372.266023 148.8939 
L 363.811477 145.814435 
L 355.356932 148.124034 
L 346.902386 145.301191 
L 338.447841 144.01808 
L 329.993295 149.663767 
L 321.53875 147.61079 
L 313.084205 145.557813 
L 304.629659 150.177011 
L 296.175114 147.097546 
L 287.720568 148.380656 
L 279.266023 145.814435 
L 270.811477 151.203499 
L 262.356932 151.460122 
L 253.902386 151.460122 
L 245.447841 147.097546 
L 236.993295 149.407145 
L 228.53875 149.663767 
L 220.084205 151.973366 
L 211.629659 149.663767 
L 203.175114 151.716744 
L 194.720568 147.867412 
L 186.266023 150.946877 
L 177.811477 149.920389 
L 169.356932 148.380656 
L 160.902386 149.407145 
L 152.447841 150.946877 
L 143.993295 151.973366 
L 135.53875 151.460122 
L 127.084205 149.407145 
L 118.629659 151.460122 
L 110.175114 151.460122 
L 101.720568 150.690255 
L 93.266023 150.433633 
L 84.811477 151.716744 
L 76.356932 151.203499 
L 67.902386 151.203499 
L 59.447841 151.460122 
L 50.993295 151.973366 
L 42.53875 151.973366 
z
" style="fill:#f28037;"/>
   </g>
   <g id="PolyCollection_2">
    <path clip-path="url(#p3d36b91e60)" d="M 42.53875 126.311154 
L 42.53875 151.973366 
L 50.993295 151.973366 
L 59.447841 151.460122 
L 67.902386 151.203499 
L 76.356932 151.203499 
L 84.811477 151.716744 
L 93.266023 150.433633 
L 101.720568 150.690255 
L 110.175114 151.460122 
L 118.629659 151.460122 
L 127.084205 149.407145 
L 135.53875 151.460122 
L 143.993295 151.973366 
L 152.447841 150.946877 
L 160.902386 149.407145 
L 169.356932 148.380656 
L 177.811477 149.920389 
L 186.266023 150.946877 
L 194.720568 147.867412 
L 203.175114 151.716744 
L 211.629659 149.663767 
L 220.084205 151.973366 
L 228.53875 149.663767 
L 236.993295 149.407145 
L 245.447841 147.097546 
L 253.902386 151.460122 
L 262.356932 151.460122 
L 270.811477 151.203499 
L 279.266023 145.814435 
L 287.720568 148.380656 
L 296.175114 147.097546 
L 304.629659 150.177011 
L 313.084205 145.557813 
L 321.53875 147.61079 
L 329.993295 149.663767 
L 338.447841 144.01808 
L 346.902386 145.301191 
L 355.356932 148.124034 
L 363.811477 145.814435 
L 372.266023 148.8939 
L 380.720568 141.965103 
L 389.175114 145.301191 
L 397.629659 141.965103 
L 406.084205 141.195237 
L 414.53875 144.531324 
L 422.993295 145.044569 
L 431.447841 149.407145 
L 439.902386 142.478348 
L 448.356932 149.150522 
L 456.811477 145.301191 
L 465.266023 200.731567 
L 473.720568 203.297789 
L 482.175114 203.297789 
L 490.629659 208.430231 
L 499.084205 151.973366 
L 507.53875 151.716744 
L 515.993295 151.973366 
L 524.447841 151.203499 
L 532.902386 150.946877 
L 541.356932 150.690255 
L 549.811477 151.973366 
L 558.266023 151.716744 
L 566.720568 150.177011 
L 575.175114 150.690255 
L 583.629659 149.920389 
L 592.084205 149.920389 
L 600.53875 151.460122 
L 608.993295 149.920389 
L 617.447841 150.433633 
L 625.902386 148.637278 
L 634.356932 150.690255 
L 642.811477 148.637278 
L 651.266023 151.716744 
L 659.720568 151.203499 
L 668.175114 147.867412 
L 676.629659 146.584301 
L 685.084205 146.840923 
L 693.53875 148.380656 
L 701.993295 150.946877 
L 710.447841 145.814435 
L 718.902386 148.637278 
L 727.356932 150.177011 
L 735.811477 151.460122 
L 744.266023 149.150522 
L 752.720568 148.8939 
L 761.175114 149.407145 
L 769.629659 146.327679 
L 778.084205 150.690255 
L 786.53875 145.044569 
L 794.993295 148.124034 
L 803.447841 144.531324 
L 811.902386 149.920389 
L 820.356932 145.557813 
L 828.811477 146.584301 
L 837.266023 142.221725 
L 845.720568 143.761458 
L 854.175114 141.195237 
L 862.629659 145.044569 
L 871.084205 144.531324 
L 879.53875 145.044569 
L 879.53875 109.630717 
L 879.53875 109.630717 
L 871.084205 117.32938 
L 862.629659 106.551252 
L 854.175114 97.056233 
L 845.720568 113.993293 
L 837.266023 104.754897 
L 828.811477 106.551252 
L 820.356932 100.905565 
L 811.902386 102.188676 
L 803.447841 103.215164 
L 794.993295 109.374095 
L 786.53875 101.418809 
L 778.084205 109.630717 
L 769.629659 112.966804 
L 761.175114 105.524763 
L 752.720568 106.807874 
L 744.266023 121.691956 
L 735.811477 125.028044 
L 727.356932 124.001555 
L 718.902386 103.215164 
L 710.447841 101.162187 
L 701.993295 116.04627 
L 693.53875 115.533026 
L 685.084205 102.958542 
L 676.629659 105.781385 
L 668.175114 111.683694 
L 659.720568 108.604228 
L 651.266023 108.347606 
L 642.811477 114.763159 
L 634.356932 122.2052 
L 625.902386 115.533026 
L 617.447841 115.533026 
L 608.993295 107.064496 
L 600.53875 109.117473 
L 592.084205 122.975067 
L 583.629659 113.223426 
L 575.175114 114.249915 
L 566.720568 110.143961 
L 558.266023 124.771422 
L 549.811477 117.072758 
L 541.356932 124.771422 
L 532.902386 120.408846 
L 524.447841 117.586002 
L 515.993295 118.612491 
L 507.53875 125.284666 
L 499.084205 113.736671 
L 490.629659 172.246513 
L 482.175114 171.733269 
L 473.720568 177.378955 
L 465.266023 170.450158 
L 456.811477 107.321118 
L 448.356932 113.480049 
L 439.902386 115.276403 
L 431.447841 113.480049 
L 422.993295 118.355869 
L 414.53875 109.374095 
L 406.084205 113.993293 
L 397.629659 114.506537 
L 389.175114 115.019781 
L 380.720568 115.533026 
L 372.266023 115.019781 
L 363.811477 118.869113 
L 355.356932 117.072758 
L 346.902386 117.072758 
L 338.447841 110.657205 
L 329.993295 123.744933 
L 321.53875 120.92209 
L 313.084205 111.940316 
L 304.629659 121.178712 
L 296.175114 118.612491 
L 287.720568 121.948578 
L 279.266023 113.223426 
L 270.811477 122.2052 
L 262.356932 123.231689 
L 253.902386 125.79791 
L 245.447841 116.04627 
L 236.993295 118.869113 
L 228.53875 118.612491 
L 220.084205 125.284666 
L 211.629659 122.718445 
L 203.175114 123.744933 
L 194.720568 117.586002 
L 186.266023 124.5148 
L 177.811477 122.2052 
L 169.356932 120.152224 
L 160.902386 120.665468 
L 152.447841 123.231689 
L 143.993295 125.541288 
L 135.53875 125.028044 
L 127.084205 123.231689 
L 118.629659 125.028044 
L 110.175114 125.284666 
L 101.720568 124.258177 
L 93.266023 123.231689 
L 84.811477 125.284666 
L 76.356932 124.5148 
L 67.902386 125.284666 
L 59.447841 125.79791 
L 50.993295 126.311154 
L 42.53875 126.311154 
z
" style="fill:#f28037;fill-opacity:0.4;"/>
   </g>
   <g id="PolyCollection_3">
    <path clip-path="url(#p3d36b91e60)" d="M 42.53875 100.648943 
L 42.53875 126.311154 
L 50.993295 126.311154 
L 59.447841 125.79791 
L 67.902386 125.284666 
L 76.356932 124.5148 
L 84.811477 125.284666 
L 93.266023 123.231689 
L 101.720568 124.258177 
L 110.175114 125.284666 
L 118.629659 125.028044 
L 127.084205 123.231689 
L 135.53875 125.028044 
L 143.993295 125.541288 
L 152.447841 123.231689 
L 160.902386 120.665468 
L 169.356932 120.152224 
L 177.811477 122.2052 
L 186.266023 124.5148 
L 194.720568 117.586002 
L 203.175114 123.744933 
L 211.629659 122.718445 
L 220.084205 125.284666 
L 228.53875 118.612491 
L 236.993295 118.869113 
L 245.447841 116.04627 
L 253.902386 125.79791 
L 262.356932 123.231689 
L 270.811477 122.2052 
L 279.266023 113.223426 
L 287.720568 121.948578 
L 296.175114 118.612491 
L 304.629659 121.178712 
L 313.084205 111.940316 
L 321.53875 120.92209 
L 329.993295 123.744933 
L 338.447841 110.657205 
L 346.902386 117.072758 
L 355.356932 117.072758 
L 363.811477 118.869113 
L 372.266023 115.019781 
L 380.720568 115.533026 
L 389.175114 115.019781 
L 397.629659 114.506537 
L 406.084205 113.993293 
L 414.53875 109.374095 
L 422.993295 118.355869 
L 431.447841 113.480049 
L 439.902386 115.276403 
L 448.356932 113.480049 
L 456.811477 107.321118 
L 465.266023 170.450158 
L 473.720568 177.378955 
L 482.175114 171.733269 
L 490.629659 172.246513 
L 499.084205 113.736671 
L 507.53875 125.284666 
L 515.993295 118.612491 
L 524.447841 117.586002 
L 532.902386 120.408846 
L 541.356932 124.771422 
L 549.811477 117.072758 
L 558.266023 124.771422 
L 566.720568 110.143961 
L 575.175114 114.249915 
L 583.629659 113.223426 
L 592.084205 122.975067 
L 600.53875 109.117473 
L 608.993295 107.064496 
L 617.447841 115.533026 
L 625.902386 115.533026 
L 634.356932 122.2052 
L 642.811477 114.763159 
L 651.266023 108.347606 
L 659.720568 108.604228 
L 668.175114 111.683694 
L 676.629659 105.781385 
L 685.084205 102.958542 
L 693.53875 115.533026 
L 701.993295 116.04627 
L 710.447841 101.162187 
L 718.902386 103.215164 
L 727.356932 124.001555 
L 735.811477 125.028044 
L 744.266023 121.691956 
L 752.720568 106.807874 
L 761.175114 105.524763 
L 769.629659 112.966804 
L 778.084205 109.630717 
L 786.53875 101.418809 
L 794.993295 109.374095 
L 803.447841 103.215164 
L 811.902386 102.188676 
L 820.356932 100.905565 
L 828.811477 106.551252 
L 837.266023 104.754897 
L 845.720568 113.993293 
L 854.175114 97.056233 
L 862.629659 106.551252 
L 871.084205 117.32938 
L 879.53875 109.630717 
L 879.53875 72.933755 
L 879.53875 72.933755 
L 871.084205 80.88904 
L 862.629659 75.243354 
L 854.175114 65.748335 
L 845.720568 81.145662 
L 837.266023 68.057934 
L 828.811477 58.049672 
L 820.356932 70.367533 
L 811.902386 71.907266 
L 803.447841 61.129137 
L 794.993295 71.907266 
L 786.53875 53.173852 
L 778.084205 62.925492 
L 769.629659 86.278104 
L 761.175114 58.306294 
L 752.720568 66.518202 
L 744.266023 86.534727 
L 735.811477 91.410547 
L 727.356932 89.100948 
L 718.902386 71.1374 
L 710.447841 69.597667 
L 701.993295 71.650644 
L 693.53875 88.587704 
L 685.084205 77.29633 
L 676.629659 73.960243 
L 668.175114 75.756598 
L 659.720568 81.402284 
L 651.266023 70.367533 
L 642.811477 78.836063 
L 634.356932 84.225128 
L 625.902386 77.552953 
L 617.447841 86.278104 
L 608.993295 78.066197 
L 600.53875 78.579441 
L 592.084205 90.897303 
L 583.629659 77.039708 
L 575.175114 73.960243 
L 566.720568 74.216865 
L 558.266023 93.976768 
L 549.811477 80.375796 
L 541.356932 92.437035 
L 532.902386 90.897303 
L 524.447841 79.862552 
L 515.993295 85.508238 
L 507.53875 91.153925 
L 499.084205 74.216865 
L 490.629659 138.115772 
L 482.175114 134.779684 
L 473.720568 139.655504 
L 465.266023 142.221725 
L 456.811477 70.367533 
L 448.356932 79.092685 
L 439.902386 83.711883 
L 431.447841 84.48175 
L 422.993295 87.817837 
L 414.53875 78.836063 
L 406.084205 86.791349 
L 397.629659 88.074459 
L 389.175114 86.021482 
L 380.720568 85.251616 
L 372.266023 79.60593 
L 363.811477 89.35757 
L 355.356932 84.738372 
L 346.902386 87.304593 
L 338.447841 81.658906 
L 329.993295 93.463524 
L 321.53875 88.331081 
L 313.084205 85.251616 
L 304.629659 95.259878 
L 296.175114 91.410547 
L 287.720568 93.976768 
L 279.266023 86.534727 
L 270.811477 91.153925 
L 262.356932 92.950279 
L 253.902386 99.10921 
L 245.447841 90.127436 
L 236.993295 89.35757 
L 228.53875 91.923791 
L 220.084205 97.8261 
L 211.629659 94.23339 
L 203.175114 97.569478 
L 194.720568 90.384058 
L 186.266023 97.8261 
L 177.811477 94.490012 
L 169.356932 90.64068 
L 160.902386 91.923791 
L 152.447841 96.286367 
L 143.993295 97.056233 
L 135.53875 96.799611 
L 127.084205 95.516501 
L 118.629659 97.569478 
L 110.175114 99.622454 
L 101.720568 96.799611 
L 93.266023 97.312855 
L 84.811477 98.595966 
L 76.356932 98.339344 
L 67.902386 99.10921 
L 59.447841 100.135699 
L 50.993295 100.648943 
L 42.53875 100.648943 
z
" style="fill:#f28037;fill-opacity:0.6;"/>
   </g>
   <g id="PolyCollection_4">
    <path clip-path="url(#p3d36b91e60)" d="M 42.53875 74.986731 
L 42.53875 100.648943 
L 50.993295 100.648943 
L 59.447841 100.135699 
L 67.902386 99.10921 
L 76.356932 98.339344 
L 84.811477 98.595966 
L 93.266023 97.312855 
L 101.720568 96.799611 
L 110.175114 99.622454 
L 118.629659 97.569478 
L 127.084205 95.516501 
L 135.53875 96.799611 
L 143.993295 97.056233 
L 152.447841 96.286367 
L 160.902386 91.923791 
L 169.356932 90.64068 
L 177.811477 94.490012 
L 186.266023 97.8261 
L 194.720568 90.384058 
L 203.175114 97.569478 
L 211.629659 94.23339 
L 220.084205 97.8261 
L 228.53875 91.923791 
L 236.993295 89.35757 
L 245.447841 90.127436 
L 253.902386 99.10921 
L 262.356932 92.950279 
L 270.811477 91.153925 
L 279.266023 86.534727 
L 287.720568 93.976768 
L 296.175114 91.410547 
L 304.629659 95.259878 
L 313.084205 85.251616 
L 321.53875 88.331081 
L 329.993295 93.463524 
L 338.447841 81.658906 
L 346.902386 87.304593 
L 355.356932 84.738372 
L 363.811477 89.35757 
L 372.266023 79.60593 
L 380.720568 85.251616 
L 389.175114 86.021482 
L 397.629659 88.074459 
L 406.084205 86.791349 
L 414.53875 78.836063 
L 422.993295 87.817837 
L 431.447841 84.48175 
L 439.902386 83.711883 
L 448.356932 79.092685 
L 456.811477 70.367533 
L 465.266023 142.221725 
L 473.720568 139.655504 
L 482.175114 134.779684 
L 490.629659 138.115772 
L 499.084205 74.216865 
L 507.53875 91.153925 
L 515.993295 85.508238 
L 524.447841 79.862552 
L 532.902386 90.897303 
L 541.356932 92.437035 
L 549.811477 80.375796 
L 558.266023 93.976768 
L 566.720568 74.216865 
L 575.175114 73.960243 
L 583.629659 77.039708 
L 592.084205 90.897303 
L 600.53875 78.579441 
L 608.993295 78.066197 
L 617.447841 86.278104 
L 625.902386 77.552953 
L 634.356932 84.225128 
L 642.811477 78.836063 
L 651.266023 70.367533 
L 659.720568 81.402284 
L 668.175114 75.756598 
L 676.629659 73.960243 
L 685.084205 77.29633 
L 693.53875 88.587704 
L 701.993295 71.650644 
L 710.447841 69.597667 
L 718.902386 71.1374 
L 727.356932 89.100948 
L 735.811477 91.410547 
L 744.266023 86.534727 
L 752.720568 66.518202 
L 761.175114 58.306294 
L 769.629659 86.278104 
L 778.084205 62.925492 
L 786.53875 53.173852 
L 794.993295 71.907266 
L 803.447841 61.129137 
L 811.902386 71.907266 
L 820.356932 70.367533 
L 828.811477 58.049672 
L 837.266023 68.057934 
L 845.720568 81.145662 
L 854.175114 65.748335 
L 862.629659 75.243354 
L 871.084205 80.88904 
L 879.53875 72.933755 
L 879.53875 23.662309 
L 879.53875 23.662309 
L 871.084205 34.440437 
L 862.629659 43.935456 
L 854.175114 18.273244 
L 845.720568 39.829502 
L 837.266023 26.998396 
L 828.811477 23.662309 
L 820.356932 28.281507 
L 811.902386 26.741774 
L 803.447841 25.202041 
L 794.993295 23.662309 
L 786.53875 17.76 
L 778.084205 30.334484 
L 769.629659 45.988433 
L 761.175114 19.556355 
L 752.720568 26.998396 
L 744.266023 42.908967 
L 735.811477 57.536428 
L 727.356932 51.120875 
L 718.902386 34.183815 
L 710.447841 28.024885 
L 701.993295 33.927193 
L 693.53875 49.067898 
L 685.084205 42.652345 
L 676.629659 40.086124 
L 668.175114 34.953682 
L 659.720568 52.91723 
L 651.266023 43.165589 
L 642.811477 40.342746 
L 634.356932 48.041409 
L 625.902386 38.289769 
L 617.447841 49.067898 
L 608.993295 42.652345 
L 600.53875 48.811276 
L 592.084205 62.155626 
L 583.629659 36.236792 
L 575.175114 38.033147 
L 566.720568 46.758299 
L 558.266023 66.774824 
L 549.811477 49.837764 
L 541.356932 54.970207 
L 532.902386 53.173852 
L 524.447841 46.245055 
L 515.993295 46.501677 
L 507.53875 54.20034 
L 499.084205 35.723548 
L 490.629659 107.57774 
L 482.175114 102.958542 
L 473.720568 106.551252 
L 465.266023 107.064496 
L 456.811477 33.670571 
L 448.356932 49.581142 
L 439.902386 52.91723 
L 431.447841 50.864253 
L 422.993295 55.740073 
L 414.53875 48.041409 
L 406.084205 50.351009 
L 397.629659 55.740073 
L 389.175114 52.660608 
L 380.720568 52.403985 
L 372.266023 50.094386 
L 363.811477 63.182114 
L 355.356932 54.20034 
L 346.902386 60.102649 
L 338.447841 55.996695 
L 329.993295 64.208603 
L 321.53875 61.899004 
L 313.084205 51.634119 
L 304.629659 62.155626 
L 296.175114 64.978469 
L 287.720568 62.155626 
L 279.266023 59.332783 
L 270.811477 62.412248 
L 262.356932 66.26158 
L 253.902386 71.650644 
L 245.447841 59.332783 
L 236.993295 60.102649 
L 228.53875 61.129137 
L 220.084205 68.314557 
L 211.629659 65.235091 
L 203.175114 69.597667 
L 194.720568 61.385759 
L 186.266023 69.341045 
L 177.811477 67.801312 
L 169.356932 64.465225 
L 160.902386 64.978469 
L 152.447841 70.110911 
L 143.993295 69.084423 
L 135.53875 69.854289 
L 127.084205 69.084423 
L 118.629659 71.650644 
L 110.175114 73.446999 
L 101.720568 71.1374 
L 93.266023 70.367533 
L 84.811477 72.163888 
L 76.356932 72.42051 
L 67.902386 72.933755 
L 59.447841 74.473487 
L 50.993295 74.730109 
L 42.53875 74.986731 
z
" style="fill:#f28037;fill-opacity:0.8;"/>
   </g>
   <g id="matplotlib.axis_1">
    <g id="text_1">
     <!-- Time (s) -->
     <defs>
      <path d="M -0.296875 72.90625 
L 61.375 72.90625 
L 61.375 64.59375 
L 35.5 64.59375 
L 35.5 0 
L 25.59375 0 
L 25.59375 64.59375 
L -0.296875 64.59375 
z
" id="DejaVuSans-84"/>
      <path d="M 9.421875 54.6875 
L 18.40625 54.6875 
L 18.40625 0 
L 9.421875 0 
z
M 9.421875 75.984375 
L 18.40625 75.984375 
L 18.40625 64.59375 
L 9.421875 64.59375 
z
" id="DejaVuSans-105"/>
      <path d="M 52 44.1875 
Q 55.375 50.25 60.0625 53.125 
Q 64.75 56 71.09375 56 
Q 79.640625 56 84.28125 50.015625 
Q 88.921875 44.046875 88.921875 33.015625 
L 88.921875 0 
L 79.890625 0 
L 79.890625 32.71875 
Q 79.890625 40.578125 77.09375 44.375 
Q 74.3125 48.1875 68.609375 48.1875 
Q 61.625 48.1875 57.5625 43.546875 
Q 53.515625 38.921875 53.515625 30.90625 
L 53.515625 0 
L 44.484375 0 
L 44.484375 32.71875 
Q 44.484375 40.625 41.703125 44.40625 
Q 38.921875 48.1875 33.109375 48.1875 
Q 26.21875 48.1875 22.15625 43.53125 
Q 18.109375 38.875 18.109375 30.90625 
L 18.109375 0 
L 9.078125 0 
L 9.078125 54.6875 
L 18.109375 54.6875 
L 18.109375 46.1875 
Q 21.1875 51.21875 25.484375 53.609375 
Q 29.78125 56 35.6875 56 
Q 41.65625 56 45.828125 52.96875 
Q 50 49.953125 52 44.1875 
z
" id="DejaVuSans-109"/>
      <path d="M 56.203125 29.59375 
L 56.203125 25.203125 
L 14.890625 25.203125 
Q 15.484375 15.921875 20.484375 11.0625 
Q 25.484375 6.203125 34.421875 6.203125 
Q 39.59375 6.203125 44.453125 7.46875 
Q 49.3125 8.734375 54.109375 11.28125 
L 54.109375 2.78125 
Q 49.265625 0.734375 44.1875 -0.34375 
Q 39.109375 -1.421875 33.890625 -1.421875 
Q 20.796875 -1.421875 13.15625 6.1875 
Q 5.515625 13.8125 5.515625 26.8125 
Q 5.515625 40.234375 12.765625 48.109375 
Q 20.015625 56 32.328125 56 
Q 43.359375 56 49.78125 48.890625 
Q 56.203125 41.796875 56.203125 29.59375 
z
M 47.21875 32.234375 
Q 47.125 39.59375 43.09375 43.984375 
Q 39.0625 48.390625 32.421875 48.390625 
Q 24.90625 48.390625 20.390625 44.140625 
Q 15.875 39.890625 15.1875 32.171875 
z
" id="DejaVuSans-101"/>
      <path id="DejaVuSans-32"/>
      <path d="M 31 75.875 
Q 24.46875 64.65625 21.28125 53.65625 
Q 18.109375 42.671875 18.109375 31.390625 
Q 18.109375 20.125 21.3125 9.0625 
Q 24.515625 -2 31 -13.1875 
L 23.1875 -13.1875 
Q 15.875 -1.703125 12.234375 9.375 
Q 8.59375 20.453125 8.59375 31.390625 
Q 8.59375 42.28125 12.203125 53.3125 
Q 15.828125 64.359375 23.1875 75.875 
z
" id="DejaVuSans-40"/>
      <path d="M 44.28125 53.078125 
L 44.28125 44.578125 
Q 40.484375 46.53125 36.375 47.5 
Q 32.28125 48.484375 27.875 48.484375 
Q 21.1875 48.484375 17.84375 46.4375 
Q 14.5 44.390625 14.5 40.28125 
Q 14.5 37.15625 16.890625 35.375 
Q 19.28125 33.59375 26.515625 31.984375 
L 29.59375 31.296875 
Q 39.15625 29.25 43.1875 25.515625 
Q 47.21875 21.78125 47.21875 15.09375 
Q 47.21875 7.46875 41.1875 3.015625 
Q 35.15625 -1.421875 24.609375 -1.421875 
Q 20.21875 -1.421875 15.453125 -0.5625 
Q 10.6875 0.296875 5.421875 2 
L 5.421875 11.28125 
Q 10.40625 8.6875 15.234375 7.390625 
Q 20.0625 6.109375 24.8125 6.109375 
Q 31.15625 6.109375 34.5625 8.28125 
Q 37.984375 10.453125 37.984375 14.40625 
Q 37.984375 18.0625 35.515625 20.015625 
Q 33.0625 21.96875 24.703125 23.78125 
L 21.578125 24.515625 
Q 13.234375 26.265625 9.515625 29.90625 
Q 5.8125 33.546875 5.8125 39.890625 
Q 5.8125 47.609375 11.28125 51.796875 
Q 16.75 56 26.8125 56 
Q 31.78125 56 36.171875 55.265625 
Q 40.578125 54.546875 44.28125 53.078125 
z
" id="DejaVuSans-115"/>
      <path d="M 8.015625 75.875 
L 15.828125 75.875 
Q 23.140625 64.359375 26.78125 53.3125 
Q 30.421875 42.28125 30.421875 31.390625 
Q 30.421875 20.453125 26.78125 9.375 
Q 23.140625 -1.703125 15.828125 -13.1875 
L 8.015625 -13.1875 
Q 14.5 -2 17.703125 9.0625 
Q 20.90625 20.125 20.90625 31.390625 
Q 20.90625 42.671875 17.703125 53.65625 
Q 14.5 64.65625 8.015625 75.875 
z
" id="DejaVuSans-41"/>
     </defs>
     <g transform="translate(436.644063 242.078125)scale(0.12 -0.12)">
      <use xlink:href="#DejaVuSans-84"/>
      <use x="57.958984" xlink:href="#DejaVuSans-105"/>
      <use x="85.742188" xlink:href="#DejaVuSans-109"/>
      <use x="183.154297" xlink:href="#DejaVuSans-101"/>
      <use x="244.677734" xlink:href="#DejaVuSans-32"/>
      <use x="276.464844" xlink:href="#DejaVuSans-40"/>
      <use x="315.478516" xlink:href="#DejaVuSans-115"/>
      <use x="367.578125" xlink:href="#DejaVuSans-41"/>
     </g>
    </g>
   </g>
   <g id="matplotlib.axis_2">
    <g id="ytick_1">
     <g id="line2d_1">
      <defs>
       <path d="M 0 0 
L -3.5 0 
" id="m930cbb5bfd" style="stroke:#000000;stroke-width:0.8;"/>
      </defs>
      <g>
       <use style="stroke:#000000;stroke-width:0.8;" x="42.53875" xlink:href="#m930cbb5bfd" y="228.96"/>
      </g>
     </g>
     <g id="text_2">
      <!-- 0 -->
      <defs>
       <path d="M 31.78125 66.40625 
Q 24.171875 66.40625 20.328125 58.90625 
Q 16.5 51.421875 16.5 36.375 
Q 16.5 21.390625 20.328125 13.890625 
Q 24.171875 6.390625 31.78125 6.390625 
Q 39.453125 6.390625 43.28125 13.890625 
Q 47.125 21.390625 47.125 36.375 
Q 47.125 51.421875 43.28125 58.90625 
Q 39.453125 66.40625 31.78125 66.40625 
z
M 31.78125 74.21875 
Q 44.046875 74.21875 50.515625 64.515625 
Q 56.984375 54.828125 56.984375 36.375 
Q 56.984375 17.96875 50.515625 8.265625 
Q 44.046875 -1.421875 31.78125 -1.421875 
Q 19.53125 -1.421875 13.0625 8.265625 
Q 6.59375 17.96875 6.59375 36.375 
Q 6.59375 54.828125 13.0625 64.515625 
Q 19.53125 74.21875 31.78125 74.21875 
z
" id="DejaVuSans-48"/>
      </defs>
      <g transform="translate(29.17625 232.759219)scale(0.1 -0.1)">
       <use xlink:href="#DejaVuSans-48"/>
      </g>
     </g>
    </g>
    <g id="ytick_2">
     <g id="line2d_2">
      <g>
       <use style="stroke:#000000;stroke-width:0.8;" x="42.53875" xlink:href="#m930cbb5bfd" y="203.297789"/>
      </g>
     </g>
     <g id="text_3">
      <!-- 10 -->
      <defs>
       <path d="M 12.40625 8.296875 
L 28.515625 8.296875 
L 28.515625 63.921875 
L 10.984375 60.40625 
L 10.984375 69.390625 
L 28.421875 72.90625 
L 38.28125 72.90625 
L 38.28125 8.296875 
L 54.390625 8.296875 
L 54.390625 0 
L 12.40625 0 
z
" id="DejaVuSans-49"/>
      </defs>
      <g transform="translate(22.81375 207.097007)scale(0.1 -0.1)">
       <use xlink:href="#DejaVuSans-49"/>
       <use x="63.623047" xlink:href="#DejaVuSans-48"/>
      </g>
     </g>
    </g>
    <g id="ytick_3">
     <g id="line2d_3">
      <g>
       <use style="stroke:#000000;stroke-width:0.8;" x="42.53875" xlink:href="#m930cbb5bfd" y="177.635577"/>
      </g>
     </g>
     <g id="text_4">
      <!-- 20 -->
      <defs>
       <path d="M 19.1875 8.296875 
L 53.609375 8.296875 
L 53.609375 0 
L 7.328125 0 
L 7.328125 8.296875 
Q 12.9375 14.109375 22.625 23.890625 
Q 32.328125 33.6875 34.8125 36.53125 
Q 39.546875 41.84375 41.421875 45.53125 
Q 43.3125 49.21875 43.3125 52.78125 
Q 43.3125 58.59375 39.234375 62.25 
Q 35.15625 65.921875 28.609375 65.921875 
Q 23.96875 65.921875 18.8125 64.3125 
Q 13.671875 62.703125 7.8125 59.421875 
L 7.8125 69.390625 
Q 13.765625 71.78125 18.9375 73 
Q 24.125 74.21875 28.421875 74.21875 
Q 39.75 74.21875 46.484375 68.546875 
Q 53.21875 62.890625 53.21875 53.421875 
Q 53.21875 48.921875 51.53125 44.890625 
Q 49.859375 40.875 45.40625 35.40625 
Q 44.1875 33.984375 37.640625 27.21875 
Q 31.109375 20.453125 19.1875 8.296875 
z
" id="DejaVuSans-50"/>
      </defs>
      <g transform="translate(22.81375 181.434796)scale(0.1 -0.1)">
       <use xlink:href="#DejaVuSans-50"/>
       <use x="63.623047" xlink:href="#DejaVuSans-48"/>
      </g>
     </g>
    </g>
    <g id="ytick_4">
     <g id="line2d_4">
      <g>
       <use style="stroke:#000000;stroke-width:0.8;" x="42.53875" xlink:href="#m930cbb5bfd" y="151.973366"/>
      </g>
     </g>
     <g id="text_5">
      <!-- 30 -->
      <defs>
       <path d="M 40.578125 39.3125 
Q 47.65625 37.796875 51.625 33 
Q 55.609375 28.21875 55.609375 21.1875 
Q 55.609375 10.40625 48.1875 4.484375 
Q 40.765625 -1.421875 27.09375 -1.421875 
Q 22.515625 -1.421875 17.65625 -0.515625 
Q 12.796875 0.390625 7.625 2.203125 
L 7.625 11.71875 
Q 11.71875 9.328125 16.59375 8.109375 
Q 21.484375 6.890625 26.8125 6.890625 
Q 36.078125 6.890625 40.9375 10.546875 
Q 45.796875 14.203125 45.796875 21.1875 
Q 45.796875 27.640625 41.28125 31.265625 
Q 36.765625 34.90625 28.71875 34.90625 
L 20.21875 34.90625 
L 20.21875 43.015625 
L 29.109375 43.015625 
Q 36.375 43.015625 40.234375 45.921875 
Q 44.09375 48.828125 44.09375 54.296875 
Q 44.09375 59.90625 40.109375 62.90625 
Q 36.140625 65.921875 28.71875 65.921875 
Q 24.65625 65.921875 20.015625 65.03125 
Q 15.375 64.15625 9.8125 62.3125 
L 9.8125 71.09375 
Q 15.4375 72.65625 20.34375 73.4375 
Q 25.25 74.21875 29.59375 74.21875 
Q 40.828125 74.21875 47.359375 69.109375 
Q 53.90625 64.015625 53.90625 55.328125 
Q 53.90625 49.265625 50.4375 45.09375 
Q 46.96875 40.921875 40.578125 39.3125 
z
" id="DejaVuSans-51"/>
      </defs>
      <g transform="translate(22.81375 155.772584)scale(0.1 -0.1)">
       <use xlink:href="#DejaVuSans-51"/>
       <use x="63.623047" xlink:href="#DejaVuSans-48"/>
      </g>
     </g>
    </g>
    <g id="ytick_5">
     <g id="line2d_5">
      <g>
       <use style="stroke:#000000;stroke-width:0.8;" x="42.53875" xlink:href="#m930cbb5bfd" y="126.311154"/>
      </g>
     </g>
     <g id="text_6">
      <!-- 40 -->
      <defs>
       <path d="M 37.796875 64.3125 
L 12.890625 25.390625 
L 37.796875 25.390625 
z
M 35.203125 72.90625 
L 47.609375 72.90625 
L 47.609375 25.390625 
L 58.015625 25.390625 
L 58.015625 17.1875 
L 47.609375 17.1875 
L 47.609375 0 
L 37.796875 0 
L 37.796875 17.1875 
L 4.890625 17.1875 
L 4.890625 26.703125 
z
" id="DejaVuSans-52"/>
      </defs>
      <g transform="translate(22.81375 130.110373)scale(0.1 -0.1)">
       <use xlink:href="#DejaVuSans-52"/>
       <use x="63.623047" xlink:href="#DejaVuSans-48"/>
      </g>
     </g>
    </g>
    <g id="ytick_6">
     <g id="line2d_6">
      <g>
       <use style="stroke:#000000;stroke-width:0.8;" x="42.53875" xlink:href="#m930cbb5bfd" y="100.648943"/>
      </g>
     </g>
     <g id="text_7">
      <!-- 50 -->
      <defs>
       <path d="M 10.796875 72.90625 
L 49.515625 72.90625 
L 49.515625 64.59375 
L 19.828125 64.59375 
L 19.828125 46.734375 
Q 21.96875 47.46875 24.109375 47.828125 
Q 26.265625 48.1875 28.421875 48.1875 
Q 40.625 48.1875 47.75 41.5 
Q 54.890625 34.8125 54.890625 23.390625 
Q 54.890625 11.625 47.5625 5.09375 
Q 40.234375 -1.421875 26.90625 -1.421875 
Q 22.3125 -1.421875 17.546875 -0.640625 
Q 12.796875 0.140625 7.71875 1.703125 
L 7.71875 11.625 
Q 12.109375 9.234375 16.796875 8.0625 
Q 21.484375 6.890625 26.703125 6.890625 
Q 35.15625 6.890625 40.078125 11.328125 
Q 45.015625 15.765625 45.015625 23.390625 
Q 45.015625 31 40.078125 35.4375 
Q 35.15625 39.890625 26.703125 39.890625 
Q 22.75 39.890625 18.8125 39.015625 
Q 14.890625 38.140625 10.796875 36.28125 
z
" id="DejaVuSans-53"/>
      </defs>
      <g transform="translate(22.81375 104.448162)scale(0.1 -0.1)">
       <use xlink:href="#DejaVuSans-53"/>
       <use x="63.623047" xlink:href="#DejaVuSans-48"/>
      </g>
     </g>
    </g>
    <g id="ytick_7">
     <g id="line2d_7">
      <g>
       <use style="stroke:#000000;stroke-width:0.8;" x="42.53875" xlink:href="#m930cbb5bfd" y="74.986731"/>
      </g>
     </g>
     <g id="text_8">
      <!-- 60 -->
      <defs>
       <path d="M 33.015625 40.375 
Q 26.375 40.375 22.484375 35.828125 
Q 18.609375 31.296875 18.609375 23.390625 
Q 18.609375 15.53125 22.484375 10.953125 
Q 26.375 6.390625 33.015625 6.390625 
Q 39.65625 6.390625 43.53125 10.953125 
Q 47.40625 15.53125 47.40625 23.390625 
Q 47.40625 31.296875 43.53125 35.828125 
Q 39.65625 40.375 33.015625 40.375 
z
M 52.59375 71.296875 
L 52.59375 62.3125 
Q 48.875 64.0625 45.09375 64.984375 
Q 41.3125 65.921875 37.59375 65.921875 
Q 27.828125 65.921875 22.671875 59.328125 
Q 17.53125 52.734375 16.796875 39.40625 
Q 19.671875 43.65625 24.015625 45.921875 
Q 28.375 48.1875 33.59375 48.1875 
Q 44.578125 48.1875 50.953125 41.515625 
Q 57.328125 34.859375 57.328125 23.390625 
Q 57.328125 12.15625 50.6875 5.359375 
Q 44.046875 -1.421875 33.015625 -1.421875 
Q 20.359375 -1.421875 13.671875 8.265625 
Q 6.984375 17.96875 6.984375 36.375 
Q 6.984375 53.65625 15.1875 63.9375 
Q 23.390625 74.21875 37.203125 74.21875 
Q 40.921875 74.21875 44.703125 73.484375 
Q 48.484375 72.75 52.59375 71.296875 
z
" id="DejaVuSans-54"/>
      </defs>
      <g transform="translate(22.81375 78.78595)scale(0.1 -0.1)">
       <use xlink:href="#DejaVuSans-54"/>
       <use x="63.623047" xlink:href="#DejaVuSans-48"/>
      </g>
     </g>
    </g>
    <g id="ytick_8">
     <g id="line2d_8">
      <g>
       <use style="stroke:#000000;stroke-width:0.8;" x="42.53875" xlink:href="#m930cbb5bfd" y="49.32452"/>
      </g>
     </g>
     <g id="text_9">
      <!-- 70 -->
      <defs>
       <path d="M 8.203125 72.90625 
L 55.078125 72.90625 
L 55.078125 68.703125 
L 28.609375 0 
L 18.3125 0 
L 43.21875 64.59375 
L 8.203125 64.59375 
z
" id="DejaVuSans-55"/>
      </defs>
      <g transform="translate(22.81375 53.123739)scale(0.1 -0.1)">
       <use xlink:href="#DejaVuSans-55"/>
       <use x="63.623047" xlink:href="#DejaVuSans-48"/>
      </g>
     </g>
    </g>
    <g id="ytick_9">
     <g id="line2d_9">
      <g>
       <use style="stroke:#000000;stroke-width:0.8;" x="42.53875" xlink:href="#m930cbb5bfd" y="23.662309"/>
      </g>
     </g>
     <g id="text_10">
      <!-- 80 -->
      <defs>
       <path d="M 31.78125 34.625 
Q 24.75 34.625 20.71875 30.859375 
Q 16.703125 27.09375 16.703125 20.515625 
Q 16.703125 13.921875 20.71875 10.15625 
Q 24.75 6.390625 31.78125 6.390625 
Q 38.8125 6.390625 42.859375 10.171875 
Q 46.921875 13.96875 46.921875 20.515625 
Q 46.921875 27.09375 42.890625 30.859375 
Q 38.875 34.625 31.78125 34.625 
z
M 21.921875 38.8125 
Q 15.578125 40.375 12.03125 44.71875 
Q 8.5 49.078125 8.5 55.328125 
Q 8.5 64.0625 14.71875 69.140625 
Q 20.953125 74.21875 31.78125 74.21875 
Q 42.671875 74.21875 48.875 69.140625 
Q 55.078125 64.0625 55.078125 55.328125 
Q 55.078125 49.078125 51.53125 44.71875 
Q 48 40.375 41.703125 38.8125 
Q 48.828125 37.15625 52.796875 32.3125 
Q 56.78125 27.484375 56.78125 20.515625 
Q 56.78125 9.90625 50.3125 4.234375 
Q 43.84375 -1.421875 31.78125 -1.421875 
Q 19.734375 -1.421875 13.25 4.234375 
Q 6.78125 9.90625 6.78125 20.515625 
Q 6.78125 27.484375 10.78125 32.3125 
Q 14.796875 37.15625 21.921875 38.8125 
z
M 18.3125 54.390625 
Q 18.3125 48.734375 21.84375 45.5625 
Q 25.390625 42.390625 31.78125 42.390625 
Q 38.140625 42.390625 41.71875 45.5625 
Q 45.3125 48.734375 45.3125 54.390625 
Q 45.3125 60.0625 41.71875 63.234375 
Q 38.140625 66.40625 31.78125 66.40625 
Q 25.390625 66.40625 21.84375 63.234375 
Q 18.3125 60.0625 18.3125 54.390625 
z
" id="DejaVuSans-56"/>
      </defs>
      <g transform="translate(22.81375 27.461527)scale(0.1 -0.1)">
       <use xlink:href="#DejaVuSans-56"/>
       <use x="63.623047" xlink:href="#DejaVuSans-48"/>
      </g>
     </g>
    </g>
    <g id="text_11">
     <!-- Requests -->
     <defs>
      <path d="M 44.390625 34.1875 
Q 47.5625 33.109375 50.5625 29.59375 
Q 53.5625 26.078125 56.59375 19.921875 
L 66.609375 0 
L 56 0 
L 46.6875 18.703125 
Q 43.0625 26.03125 39.671875 28.421875 
Q 36.28125 30.8125 30.421875 30.8125 
L 19.671875 30.8125 
L 19.671875 0 
L 9.8125 0 
L 9.8125 72.90625 
L 32.078125 72.90625 
Q 44.578125 72.90625 50.734375 67.671875 
Q 56.890625 62.453125 56.890625 51.90625 
Q 56.890625 45.015625 53.6875 40.46875 
Q 50.484375 35.9375 44.390625 34.1875 
z
M 19.671875 64.796875 
L 19.671875 38.921875 
L 32.078125 38.921875 
Q 39.203125 38.921875 42.84375 42.21875 
Q 46.484375 45.515625 46.484375 51.90625 
Q 46.484375 58.296875 42.84375 61.546875 
Q 39.203125 64.796875 32.078125 64.796875 
z
" id="DejaVuSans-82"/>
      <path d="M 14.796875 27.296875 
Q 14.796875 17.390625 18.875 11.75 
Q 22.953125 6.109375 30.078125 6.109375 
Q 37.203125 6.109375 41.296875 11.75 
Q 45.40625 17.390625 45.40625 27.296875 
Q 45.40625 37.203125 41.296875 42.84375 
Q 37.203125 48.484375 30.078125 48.484375 
Q 22.953125 48.484375 18.875 42.84375 
Q 14.796875 37.203125 14.796875 27.296875 
z
M 45.40625 8.203125 
Q 42.578125 3.328125 38.25 0.953125 
Q 33.9375 -1.421875 27.875 -1.421875 
Q 17.96875 -1.421875 11.734375 6.484375 
Q 5.515625 14.40625 5.515625 27.296875 
Q 5.515625 40.1875 11.734375 48.09375 
Q 17.96875 56 27.875 56 
Q 33.9375 56 38.25 53.625 
Q 42.578125 51.265625 45.40625 46.390625 
L 45.40625 54.6875 
L 54.390625 54.6875 
L 54.390625 -20.796875 
L 45.40625 -20.796875 
z
" id="DejaVuSans-113"/>
      <path d="M 8.5 21.578125 
L 8.5 54.6875 
L 17.484375 54.6875 
L 17.484375 21.921875 
Q 17.484375 14.15625 20.5 10.265625 
Q 23.53125 6.390625 29.59375 6.390625 
Q 36.859375 6.390625 41.078125 11.03125 
Q 45.3125 15.671875 45.3125 23.6875 
L 45.3125 54.6875 
L 54.296875 54.6875 
L 54.296875 0 
L 45.3125 0 
L 45.3125 8.40625 
Q 42.046875 3.421875 37.71875 1 
Q 33.40625 -1.421875 27.6875 -1.421875 
Q 18.265625 -1.421875 13.375 4.4375 
Q 8.5 10.296875 8.5 21.578125 
z
M 31.109375 56 
z
" id="DejaVuSans-117"/>
      <path d="M 18.3125 70.21875 
L 18.3125 54.6875 
L 36.8125 54.6875 
L 36.8125 47.703125 
L 18.3125 47.703125 
L 18.3125 18.015625 
Q 18.3125 11.328125 20.140625 9.421875 
Q 21.96875 7.515625 27.59375 7.515625 
L 36.8125 7.515625 
L 36.8125 0 
L 27.59375 0 
Q 17.1875 0 13.234375 3.875 
Q 9.28125 7.765625 9.28125 18.015625 
L 9.28125 47.703125 
L 2.6875 47.703125 
L 2.6875 54.6875 
L 9.28125 54.6875 
L 9.28125 70.21875 
z
" id="DejaVuSans-116"/>
     </defs>
     <g transform="translate(16.318125 145.577812)rotate(-90)scale(0.12 -0.12)">
      <use xlink:href="#DejaVuSans-82"/>
      <use x="64.982422" xlink:href="#DejaVuSans-101"/>
      <use x="126.505859" xlink:href="#DejaVuSans-113"/>
      <use x="189.982422" xlink:href="#DejaVuSans-117"/>
      <use x="253.361328" xlink:href="#DejaVuSans-101"/>
      <use x="314.884766" xlink:href="#DejaVuSans-115"/>
      <use x="366.984375" xlink:href="#DejaVuSans-116"/>
      <use x="406.193359" xlink:href="#DejaVuSans-115"/>
     </g>
    </g>
   </g>
   <g id="patch_3">
    <path d="M 42.53875 228.96 
L 42.53875 7.2 
" style="fill:none;stroke:#000000;stroke-linecap:square;stroke-linejoin:miter;stroke-width:0.8;"/>
   </g>
   <g id="patch_4">
    <path d="M 879.53875 228.96 
L 879.53875 7.2 
" style="fill:none;stroke:#000000;stroke-linecap:square;stroke-linejoin:miter;stroke-width:0.8;"/>
   </g>
   <g id="patch_5">
    <path d="M 42.53875 228.96 
L 879.53875 228.96 
" style="fill:none;stroke:#000000;stroke-linecap:square;stroke-linejoin:miter;stroke-width:0.8;"/>
   </g>
   <g id="patch_6">
    <path d="M 42.53875 7.2 
L 879.53875 7.2 
" style="fill:none;stroke:#000000;stroke-linecap:square;stroke-linejoin:miter;stroke-width:0.8;"/>
   </g>
  </g>
 </g>
 <defs>
  <clipPath id="p3d36b91e60">
   <rect height="221.76" width="837" x="42.53875" y="7.2"/>
  </clipPath>
 </defs>
</svg>
