<?xml version="1.0" encoding="utf-8" standalone="no"?>
<!DOCTYPE svg PUBLIC "-//W3C//DTD SVG 1.1//EN"
  "http://www.w3.org/Graphics/SVG/1.1/DTD/svg11.dtd">
<!-- Created with matplotlib (https://matplotlib.org/) -->
<svg height="251.77375pt" version="1.1" viewBox="0 0 886.73875 251.77375" width="886.73875pt" xmlns="http://www.w3.org/2000/svg" xmlns:xlink="http://www.w3.org/1999/xlink">
 <defs>
  <style type="text/css">
*{stroke-linecap:butt;stroke-linejoin:round;}
  </style>
 </defs>
 <g id="figure_1">
  <g id="patch_1">
   <path d="M 0 251.77375 
L 886.73875 251.77375 
L 886.73875 0 
L 0 0 
z
" style="fill:none;"/>
  </g>
  <g id="axes_1">
   <g id="patch_2">
    <path d="M 42.53875 228.96 
L 879.53875 228.96 
L 879.53875 7.2 
L 42.53875 7.2 
z
" style="fill:none;"/>
   </g>
   <g id="matplotlib.axis_1">
    <g id="text_1">
     <!-- Time (s) -->
     <defs>
      <path d="M -0.296875 72.90625 
L 61.375 72.90625 
L 61.375 64.59375 
L 35.5 64.59375 
L 35.5 0 
L 25.59375 0 
L 25.59375 64.59375 
L -0.296875 64.59375 
z
" id="DejaVuSans-84"/>
      <path d="M 9.421875 54.6875 
L 18.40625 54.6875 
L 18.40625 0 
L 9.421875 0 
z
M 9.421875 75.984375 
L 18.40625 75.984375 
L 18.40625 64.59375 
L 9.421875 64.59375 
z
" id="DejaVuSans-105"/>
      <path d="M 52 44.1875 
Q 55.375 50.25 60.0625 53.125 
Q 64.75 56 71.09375 56 
Q 79.640625 56 84.28125 50.015625 
Q 88.921875 44.046875 88.921875 33.015625 
L 88.921875 0 
L 79.890625 0 
L 79.890625 32.71875 
Q 79.890625 40.578125 77.09375 44.375 
Q 74.3125 48.1875 68.609375 48.1875 
Q 61.625 48.1875 57.5625 43.546875 
Q 53.515625 38.921875 53.515625 30.90625 
L 53.515625 0 
L 44.484375 0 
L 44.484375 32.71875 
Q 44.484375 40.625 41.703125 44.40625 
Q 38.921875 48.1875 33.109375 48.1875 
Q 26.21875 48.1875 22.15625 43.53125 
Q 18.109375 38.875 18.109375 30.90625 
L 18.109375 0 
L 9.078125 0 
L 9.078125 54.6875 
L 18.109375 54.6875 
L 18.109375 46.1875 
Q 21.1875 51.21875 25.484375 53.609375 
Q 29.78125 56 35.6875 56 
Q 41.65625 56 45.828125 52.96875 
Q 50 49.953125 52 44.1875 
z
" id="DejaVuSans-109"/>
      <path d="M 56.203125 29.59375 
L 56.203125 25.203125 
L 14.890625 25.203125 
Q 15.484375 15.921875 20.484375 11.0625 
Q 25.484375 6.203125 34.421875 6.203125 
Q 39.59375 6.203125 44.453125 7.46875 
Q 49.3125 8.734375 54.109375 11.28125 
L 54.109375 2.78125 
Q 49.265625 0.734375 44.1875 -0.34375 
Q 39.109375 -1.421875 33.890625 -1.421875 
Q 20.796875 -1.421875 13.15625 6.1875 
Q 5.515625 13.8125 5.515625 26.8125 
Q 5.515625 40.234375 12.765625 48.109375 
Q 20.015625 56 32.328125 56 
Q 43.359375 56 49.78125 48.890625 
Q 56.203125 41.796875 56.203125 29.59375 
z
M 47.21875 32.234375 
Q 47.125 39.59375 43.09375 43.984375 
Q 39.0625 48.390625 32.421875 48.390625 
Q 24.90625 48.390625 20.390625 44.140625 
Q 15.875 39.890625 15.1875 32.171875 
z
" id="DejaVuSans-101"/>
      <path id="DejaVuSans-32"/>
      <path d="M 31 75.875 
Q 24.46875 64.65625 21.28125 53.65625 
Q 18.109375 42.671875 18.109375 31.390625 
Q 18.109375 20.125 21.3125 9.0625 
Q 24.515625 -2 31 -13.1875 
L 23.1875 -13.1875 
Q 15.875 -1.703125 12.234375 9.375 
Q 8.59375 20.453125 8.59375 31.390625 
Q 8.59375 42.28125 12.203125 53.3125 
Q 15.828125 64.359375 23.1875 75.875 
z
" id="DejaVuSans-40"/>
      <path d="M 44.28125 53.078125 
L 44.28125 44.578125 
Q 40.484375 46.53125 36.375 47.5 
Q 32.28125 48.484375 27.875 48.484375 
Q 21.1875 48.484375 17.84375 46.4375 
Q 14.5 44.390625 14.5 40.28125 
Q 14.5 37.15625 16.890625 35.375 
Q 19.28125 33.59375 26.515625 31.984375 
L 29.59375 31.296875 
Q 39.15625 29.25 43.1875 25.515625 
Q 47.21875 21.78125 47.21875 15.09375 
Q 47.21875 7.46875 41.1875 3.015625 
Q 35.15625 -1.421875 24.609375 -1.421875 
Q 20.21875 -1.421875 15.453125 -0.5625 
Q 10.6875 0.296875 5.421875 2 
L 5.421875 11.28125 
Q 10.40625 8.6875 15.234375 7.390625 
Q 20.0625 6.109375 24.8125 6.109375 
Q 31.15625 6.109375 34.5625 8.28125 
Q 37.984375 10.453125 37.984375 14.40625 
Q 37.984375 18.0625 35.515625 20.015625 
Q 33.0625 21.96875 24.703125 23.78125 
L 21.578125 24.515625 
Q 13.234375 26.265625 9.515625 29.90625 
Q 5.8125 33.546875 5.8125 39.890625 
Q 5.8125 47.609375 11.28125 51.796875 
Q 16.75 56 26.8125 56 
Q 31.78125 56 36.171875 55.265625 
Q 40.578125 54.546875 44.28125 53.078125 
z
" id="DejaVuSans-115"/>
      <path d="M 8.015625 75.875 
L 15.828125 75.875 
Q 23.140625 64.359375 26.78125 53.3125 
Q 30.421875 42.28125 30.421875 31.390625 
Q 30.421875 20.453125 26.78125 9.375 
Q 23.140625 -1.703125 15.828125 -13.1875 
L 8.015625 -13.1875 
Q 14.5 -2 17.703125 9.0625 
Q 20.90625 20.125 20.90625 31.390625 
Q 20.90625 42.671875 17.703125 53.65625 
Q 14.5 64.65625 8.015625 75.875 
z
" id="DejaVuSans-41"/>
     </defs>
     <g transform="translate(436.644063 242.078125)scale(0.12 -0.12)">
      <use xlink:href="#DejaVuSans-84"/>
      <use x="57.958984" xlink:href="#DejaVuSans-105"/>
      <use x="85.742188" xlink:href="#DejaVuSans-109"/>
      <use x="183.154297" xlink:href="#DejaVuSans-101"/>
      <use x="244.677734" xlink:href="#DejaVuSans-32"/>
      <use x="276.464844" xlink:href="#DejaVuSans-40"/>
      <use x="315.478516" xlink:href="#DejaVuSans-115"/>
      <use x="367.578125" xlink:href="#DejaVuSans-41"/>
     </g>
    </g>
   </g>
   <g id="matplotlib.axis_2">
    <g id="ytick_1">
     <g id="line2d_1">
      <defs>
       <path d="M 0 0 
L -3.5 0 
" id="m2eb8e5e394" style="stroke:#000000;stroke-width:0.8;"/>
      </defs>
      <g>
       <use style="stroke:#000000;stroke-width:0.8;" x="42.53875" xlink:href="#m2eb8e5e394" y="213.595596"/>
      </g>
     </g>
     <g id="text_2">
      <!-- 10 -->
      <defs>
       <path d="M 12.40625 8.296875 
L 28.515625 8.296875 
L 28.515625 63.921875 
L 10.984375 60.40625 
L 10.984375 69.390625 
L 28.421875 72.90625 
L 38.28125 72.90625 
L 38.28125 8.296875 
L 54.390625 8.296875 
L 54.390625 0 
L 12.40625 0 
z
" id="DejaVuSans-49"/>
       <path d="M 31.78125 66.40625 
Q 24.171875 66.40625 20.328125 58.90625 
Q 16.5 51.421875 16.5 36.375 
Q 16.5 21.390625 20.328125 13.890625 
Q 24.171875 6.390625 31.78125 6.390625 
Q 39.453125 6.390625 43.28125 13.890625 
Q 47.125 21.390625 47.125 36.375 
Q 47.125 51.421875 43.28125 58.90625 
Q 39.453125 66.40625 31.78125 66.40625 
z
M 31.78125 74.21875 
Q 44.046875 74.21875 50.515625 64.515625 
Q 56.984375 54.828125 56.984375 36.375 
Q 56.984375 17.96875 50.515625 8.265625 
Q 44.046875 -1.421875 31.78125 -1.421875 
Q 19.53125 -1.421875 13.0625 8.265625 
Q 6.59375 17.96875 6.59375 36.375 
Q 6.59375 54.828125 13.0625 64.515625 
Q 19.53125 74.21875 31.78125 74.21875 
z
" id="DejaVuSans-48"/>
      </defs>
      <g transform="translate(22.81375 217.394815)scale(0.1 -0.1)">
       <use xlink:href="#DejaVuSans-49"/>
       <use x="63.623047" xlink:href="#DejaVuSans-48"/>
      </g>
     </g>
    </g>
    <g id="ytick_2">
     <g id="line2d_2">
      <g>
       <use style="stroke:#000000;stroke-width:0.8;" x="42.53875" xlink:href="#m2eb8e5e394" y="187.173578"/>
      </g>
     </g>
     <g id="text_3">
      <!-- 20 -->
      <defs>
       <path d="M 19.1875 8.296875 
L 53.609375 8.296875 
L 53.609375 0 
L 7.328125 0 
L 7.328125 8.296875 
Q 12.9375 14.109375 22.625 23.890625 
Q 32.328125 33.6875 34.8125 36.53125 
Q 39.546875 41.84375 41.421875 45.53125 
Q 43.3125 49.21875 43.3125 52.78125 
Q 43.3125 58.59375 39.234375 62.25 
Q 35.15625 65.921875 28.609375 65.921875 
Q 23.96875 65.921875 18.8125 64.3125 
Q 13.671875 62.703125 7.8125 59.421875 
L 7.8125 69.390625 
Q 13.765625 71.78125 18.9375 73 
Q 24.125 74.21875 28.421875 74.21875 
Q 39.75 74.21875 46.484375 68.546875 
Q 53.21875 62.890625 53.21875 53.421875 
Q 53.21875 48.921875 51.53125 44.890625 
Q 49.859375 40.875 45.40625 35.40625 
Q 44.1875 33.984375 37.640625 27.21875 
Q 31.109375 20.453125 19.1875 8.296875 
z
" id="DejaVuSans-50"/>
      </defs>
      <g transform="translate(22.81375 190.972797)scale(0.1 -0.1)">
       <use xlink:href="#DejaVuSans-50"/>
       <use x="63.623047" xlink:href="#DejaVuSans-48"/>
      </g>
     </g>
    </g>
    <g id="ytick_3">
     <g id="line2d_3">
      <g>
       <use style="stroke:#000000;stroke-width:0.8;" x="42.53875" xlink:href="#m2eb8e5e394" y="160.75156"/>
      </g>
     </g>
     <g id="text_4">
      <!-- 30 -->
      <defs>
       <path d="M 40.578125 39.3125 
Q 47.65625 37.796875 51.625 33 
Q 55.609375 28.21875 55.609375 21.1875 
Q 55.609375 10.40625 48.1875 4.484375 
Q 40.765625 -1.421875 27.09375 -1.421875 
Q 22.515625 -1.421875 17.65625 -0.515625 
Q 12.796875 0.390625 7.625 2.203125 
L 7.625 11.71875 
Q 11.71875 9.328125 16.59375 8.109375 
Q 21.484375 6.890625 26.8125 6.890625 
Q 36.078125 6.890625 40.9375 10.546875 
Q 45.796875 14.203125 45.796875 21.1875 
Q 45.796875 27.640625 41.28125 31.265625 
Q 36.765625 34.90625 28.71875 34.90625 
L 20.21875 34.90625 
L 20.21875 43.015625 
L 29.109375 43.015625 
Q 36.375 43.015625 40.234375 45.921875 
Q 44.09375 48.828125 44.09375 54.296875 
Q 44.09375 59.90625 40.109375 62.90625 
Q 36.140625 65.921875 28.71875 65.921875 
Q 24.65625 65.921875 20.015625 65.03125 
Q 15.375 64.15625 9.8125 62.3125 
L 9.8125 71.09375 
Q 15.4375 72.65625 20.34375 73.4375 
Q 25.25 74.21875 29.59375 74.21875 
Q 40.828125 74.21875 47.359375 69.109375 
Q 53.90625 64.015625 53.90625 55.328125 
Q 53.90625 49.265625 50.4375 45.09375 
Q 46.96875 40.921875 40.578125 39.3125 
z
" id="DejaVuSans-51"/>
      </defs>
      <g transform="translate(22.81375 164.550778)scale(0.1 -0.1)">
       <use xlink:href="#DejaVuSans-51"/>
       <use x="63.623047" xlink:href="#DejaVuSans-48"/>
      </g>
     </g>
    </g>
    <g id="ytick_4">
     <g id="line2d_4">
      <g>
       <use style="stroke:#000000;stroke-width:0.8;" x="42.53875" xlink:href="#m2eb8e5e394" y="134.329541"/>
      </g>
     </g>
     <g id="text_5">
      <!-- 40 -->
      <defs>
       <path d="M 37.796875 64.3125 
L 12.890625 25.390625 
L 37.796875 25.390625 
z
M 35.203125 72.90625 
L 47.609375 72.90625 
L 47.609375 25.390625 
L 58.015625 25.390625 
L 58.015625 17.1875 
L 47.609375 17.1875 
L 47.609375 0 
L 37.796875 0 
L 37.796875 17.1875 
L 4.890625 17.1875 
L 4.890625 26.703125 
z
" id="DejaVuSans-52"/>
      </defs>
      <g transform="translate(22.81375 138.12876)scale(0.1 -0.1)">
       <use xlink:href="#DejaVuSans-52"/>
       <use x="63.623047" xlink:href="#DejaVuSans-48"/>
      </g>
     </g>
    </g>
    <g id="ytick_5">
     <g id="line2d_5">
      <g>
       <use style="stroke:#000000;stroke-width:0.8;" x="42.53875" xlink:href="#m2eb8e5e394" y="107.907523"/>
      </g>
     </g>
     <g id="text_6">
      <!-- 50 -->
      <defs>
       <path d="M 10.796875 72.90625 
L 49.515625 72.90625 
L 49.515625 64.59375 
L 19.828125 64.59375 
L 19.828125 46.734375 
Q 21.96875 47.46875 24.109375 47.828125 
Q 26.265625 48.1875 28.421875 48.1875 
Q 40.625 48.1875 47.75 41.5 
Q 54.890625 34.8125 54.890625 23.390625 
Q 54.890625 11.625 47.5625 5.09375 
Q 40.234375 -1.421875 26.90625 -1.421875 
Q 22.3125 -1.421875 17.546875 -0.640625 
Q 12.796875 0.140625 7.71875 1.703125 
L 7.71875 11.625 
Q 12.109375 9.234375 16.796875 8.0625 
Q 21.484375 6.890625 26.703125 6.890625 
Q 35.15625 6.890625 40.078125 11.328125 
Q 45.015625 15.765625 45.015625 23.390625 
Q 45.015625 31 40.078125 35.4375 
Q 35.15625 39.890625 26.703125 39.890625 
Q 22.75 39.890625 18.8125 39.015625 
Q 14.890625 38.140625 10.796875 36.28125 
z
" id="DejaVuSans-53"/>
      </defs>
      <g transform="translate(22.81375 111.706742)scale(0.1 -0.1)">
       <use xlink:href="#DejaVuSans-53"/>
       <use x="63.623047" xlink:href="#DejaVuSans-48"/>
      </g>
     </g>
    </g>
    <g id="ytick_6">
     <g id="line2d_6">
      <g>
       <use style="stroke:#000000;stroke-width:0.8;" x="42.53875" xlink:href="#m2eb8e5e394" y="81.485505"/>
      </g>
     </g>
     <g id="text_7">
      <!-- 60 -->
      <defs>
       <path d="M 33.015625 40.375 
Q 26.375 40.375 22.484375 35.828125 
Q 18.609375 31.296875 18.609375 23.390625 
Q 18.609375 15.53125 22.484375 10.953125 
Q 26.375 6.390625 33.015625 6.390625 
Q 39.65625 6.390625 43.53125 10.953125 
Q 47.40625 15.53125 47.40625 23.390625 
Q 47.40625 31.296875 43.53125 35.828125 
Q 39.65625 40.375 33.015625 40.375 
z
M 52.59375 71.296875 
L 52.59375 62.3125 
Q 48.875 64.0625 45.09375 64.984375 
Q 41.3125 65.921875 37.59375 65.921875 
Q 27.828125 65.921875 22.671875 59.328125 
Q 17.53125 52.734375 16.796875 39.40625 
Q 19.671875 43.65625 24.015625 45.921875 
Q 28.375 48.1875 33.59375 48.1875 
Q 44.578125 48.1875 50.953125 41.515625 
Q 57.328125 34.859375 57.328125 23.390625 
Q 57.328125 12.15625 50.6875 5.359375 
Q 44.046875 -1.421875 33.015625 -1.421875 
Q 20.359375 -1.421875 13.671875 8.265625 
Q 6.984375 17.96875 6.984375 36.375 
Q 6.984375 53.65625 15.1875 63.9375 
Q 23.390625 74.21875 37.203125 74.21875 
Q 40.921875 74.21875 44.703125 73.484375 
Q 48.484375 72.75 52.59375 71.296875 
z
" id="DejaVuSans-54"/>
      </defs>
      <g transform="translate(22.81375 85.284723)scale(0.1 -0.1)">
       <use xlink:href="#DejaVuSans-54"/>
       <use x="63.623047" xlink:href="#DejaVuSans-48"/>
      </g>
     </g>
    </g>
    <g id="ytick_7">
     <g id="line2d_7">
      <g>
       <use style="stroke:#000000;stroke-width:0.8;" x="42.53875" xlink:href="#m2eb8e5e394" y="55.063486"/>
      </g>
     </g>
     <g id="text_8">
      <!-- 70 -->
      <defs>
       <path d="M 8.203125 72.90625 
L 55.078125 72.90625 
L 55.078125 68.703125 
L 28.609375 0 
L 18.3125 0 
L 43.21875 64.59375 
L 8.203125 64.59375 
z
" id="DejaVuSans-55"/>
      </defs>
      <g transform="translate(22.81375 58.862705)scale(0.1 -0.1)">
       <use xlink:href="#DejaVuSans-55"/>
       <use x="63.623047" xlink:href="#DejaVuSans-48"/>
      </g>
     </g>
    </g>
    <g id="ytick_8">
     <g id="line2d_8">
      <g>
       <use style="stroke:#000000;stroke-width:0.8;" x="42.53875" xlink:href="#m2eb8e5e394" y="28.641468"/>
      </g>
     </g>
     <g id="text_9">
      <!-- 80 -->
      <defs>
       <path d="M 31.78125 34.625 
Q 24.75 34.625 20.71875 30.859375 
Q 16.703125 27.09375 16.703125 20.515625 
Q 16.703125 13.921875 20.71875 10.15625 
Q 24.75 6.390625 31.78125 6.390625 
Q 38.8125 6.390625 42.859375 10.171875 
Q 46.921875 13.96875 46.921875 20.515625 
Q 46.921875 27.09375 42.890625 30.859375 
Q 38.875 34.625 31.78125 34.625 
z
M 21.921875 38.8125 
Q 15.578125 40.375 12.03125 44.71875 
Q 8.5 49.078125 8.5 55.328125 
Q 8.5 64.0625 14.71875 69.140625 
Q 20.953125 74.21875 31.78125 74.21875 
Q 42.671875 74.21875 48.875 69.140625 
Q 55.078125 64.0625 55.078125 55.328125 
Q 55.078125 49.078125 51.53125 44.71875 
Q 48 40.375 41.703125 38.8125 
Q 48.828125 37.15625 52.796875 32.3125 
Q 56.78125 27.484375 56.78125 20.515625 
Q 56.78125 9.90625 50.3125 4.234375 
Q 43.84375 -1.421875 31.78125 -1.421875 
Q 19.734375 -1.421875 13.25 4.234375 
Q 6.78125 9.90625 6.78125 20.515625 
Q 6.78125 27.484375 10.78125 32.3125 
Q 14.796875 37.15625 21.921875 38.8125 
z
M 18.3125 54.390625 
Q 18.3125 48.734375 21.84375 45.5625 
Q 25.390625 42.390625 31.78125 42.390625 
Q 38.140625 42.390625 41.71875 45.5625 
Q 45.3125 48.734375 45.3125 54.390625 
Q 45.3125 60.0625 41.71875 63.234375 
Q 38.140625 66.40625 31.78125 66.40625 
Q 25.390625 66.40625 21.84375 63.234375 
Q 18.3125 60.0625 18.3125 54.390625 
z
" id="DejaVuSans-56"/>
      </defs>
      <g transform="translate(22.81375 32.440687)scale(0.1 -0.1)">
       <use xlink:href="#DejaVuSans-56"/>
       <use x="63.623047" xlink:href="#DejaVuSans-48"/>
      </g>
     </g>
    </g>
    <g id="text_10">
     <!-- Requests -->
     <defs>
      <path d="M 44.390625 34.1875 
Q 47.5625 33.109375 50.5625 29.59375 
Q 53.5625 26.078125 56.59375 19.921875 
L 66.609375 0 
L 56 0 
L 46.6875 18.703125 
Q 43.0625 26.03125 39.671875 28.421875 
Q 36.28125 30.8125 30.421875 30.8125 
L 19.671875 30.8125 
L 19.671875 0 
L 9.8125 0 
L 9.8125 72.90625 
L 32.078125 72.90625 
Q 44.578125 72.90625 50.734375 67.671875 
Q 56.890625 62.453125 56.890625 51.90625 
Q 56.890625 45.015625 53.6875 40.46875 
Q 50.484375 35.9375 44.390625 34.1875 
z
M 19.671875 64.796875 
L 19.671875 38.921875 
L 32.078125 38.921875 
Q 39.203125 38.921875 42.84375 42.21875 
Q 46.484375 45.515625 46.484375 51.90625 
Q 46.484375 58.296875 42.84375 61.546875 
Q 39.203125 64.796875 32.078125 64.796875 
z
" id="DejaVuSans-82"/>
      <path d="M 14.796875 27.296875 
Q 14.796875 17.390625 18.875 11.75 
Q 22.953125 6.109375 30.078125 6.109375 
Q 37.203125 6.109375 41.296875 11.75 
Q 45.40625 17.390625 45.40625 27.296875 
Q 45.40625 37.203125 41.296875 42.84375 
Q 37.203125 48.484375 30.078125 48.484375 
Q 22.953125 48.484375 18.875 42.84375 
Q 14.796875 37.203125 14.796875 27.296875 
z
M 45.40625 8.203125 
Q 42.578125 3.328125 38.25 0.953125 
Q 33.9375 -1.421875 27.875 -1.421875 
Q 17.96875 -1.421875 11.734375 6.484375 
Q 5.515625 14.40625 5.515625 27.296875 
Q 5.515625 40.1875 11.734375 48.09375 
Q 17.96875 56 27.875 56 
Q 33.9375 56 38.25 53.625 
Q 42.578125 51.265625 45.40625 46.390625 
L 45.40625 54.6875 
L 54.390625 54.6875 
L 54.390625 -20.796875 
L 45.40625 -20.796875 
z
" id="DejaVuSans-113"/>
      <path d="M 8.5 21.578125 
L 8.5 54.6875 
L 17.484375 54.6875 
L 17.484375 21.921875 
Q 17.484375 14.15625 20.5 10.265625 
Q 23.53125 6.390625 29.59375 6.390625 
Q 36.859375 6.390625 41.078125 11.03125 
Q 45.3125 15.671875 45.3125 23.6875 
L 45.3125 54.6875 
L 54.296875 54.6875 
L 54.296875 0 
L 45.3125 0 
L 45.3125 8.40625 
Q 42.046875 3.421875 37.71875 1 
Q 33.40625 -1.421875 27.6875 -1.421875 
Q 18.265625 -1.421875 13.375 4.4375 
Q 8.5 10.296875 8.5 21.578125 
z
M 31.109375 56 
z
" id="DejaVuSans-117"/>
      <path d="M 18.3125 70.21875 
L 18.3125 54.6875 
L 36.8125 54.6875 
L 36.8125 47.703125 
L 18.3125 47.703125 
L 18.3125 18.015625 
Q 18.3125 11.328125 20.140625 9.421875 
Q 21.96875 7.515625 27.59375 7.515625 
L 36.8125 7.515625 
L 36.8125 0 
L 27.59375 0 
Q 17.1875 0 13.234375 3.875 
Q 9.28125 7.765625 9.28125 18.015625 
L 9.28125 47.703125 
L 2.6875 47.703125 
L 2.6875 54.6875 
L 9.28125 54.6875 
L 9.28125 70.21875 
z
" id="DejaVuSans-116"/>
     </defs>
     <g transform="translate(16.318125 145.577812)rotate(-90)scale(0.12 -0.12)">
      <use xlink:href="#DejaVuSans-82"/>
      <use x="64.982422" xlink:href="#DejaVuSans-101"/>
      <use x="126.505859" xlink:href="#DejaVuSans-113"/>
      <use x="189.982422" xlink:href="#DejaVuSans-117"/>
      <use x="253.361328" xlink:href="#DejaVuSans-101"/>
      <use x="314.884766" xlink:href="#DejaVuSans-115"/>
      <use x="366.984375" xlink:href="#DejaVuSans-116"/>
      <use x="406.193359" xlink:href="#DejaVuSans-115"/>
     </g>
    </g>
   </g>
   <g id="line2d_9">
    <path clip-path="url(#p06a33ab0f9)" d="M 42.53875 213.595596 
L 50.993295 213.595596 
L 59.447841 213.331376 
L 67.902386 212.802936 
L 76.356932 213.331376 
L 84.811477 213.595596 
L 93.266023 212.538716 
L 101.720568 213.595596 
L 110.175114 213.067156 
L 118.629659 212.274495 
L 127.084205 213.067156 
L 135.53875 212.538716 
L 143.993295 211.217615 
L 152.447841 212.010275 
L 160.902386 210.953394 
L 169.356932 210.424954 
L 177.811477 213.067156 
L 186.266023 210.160734 
L 194.720568 212.274495 
L 203.175114 211.217615 
L 211.629659 210.160734 
L 220.084205 211.481835 
L 228.53875 212.802936 
L 236.993295 211.746055 
L 245.447841 211.217615 
L 253.902386 210.424954 
L 262.356932 206.990092 
L 270.811477 208.575413 
L 279.266023 206.461651 
L 287.720568 208.046972 
L 296.175114 206.990092 
L 304.629659 208.311193 
L 313.084205 210.689174 
L 321.53875 212.802936 
L 329.993295 209.103853 
L 338.447841 208.575413 
L 346.902386 208.046972 
L 355.356932 208.046972 
L 363.811477 209.896514 
L 372.266023 204.87633 
L 380.720568 203.026789 
L 389.175114 204.61211 
L 397.629659 206.990092 
L 406.084205 206.990092 
L 414.53875 207.518532 
L 422.993295 202.234128 
L 431.447841 210.689174 
L 439.902386 205.404771 
L 448.356932 211.217615 
L 456.811477 210.953394 
L 465.266023 209.632294 
L 473.720568 203.555229 
L 482.175114 202.762569 
L 490.629659 208.575413 
L 499.084205 211.746055 
L 507.53875 210.689174 
L 515.993295 203.026789 
L 524.447841 213.595596 
L 532.902386 212.802936 
L 541.356932 210.424954 
L 549.811477 203.291009 
L 558.266023 204.34789 
L 566.720568 208.575413 
L 575.175114 210.689174 
L 583.629659 200.913028 
L 592.084205 196.949725 
L 600.53875 213.331376 
L 608.993295 205.14055 
L 617.447841 212.274495 
L 625.902386 211.481835 
L 634.356932 205.404771 
L 642.811477 204.08367 
L 651.266023 208.575413 
L 659.720568 197.742385 
L 668.175114 211.217615 
L 676.629659 209.103853 
L 685.084205 206.461651 
L 693.53875 197.213945 
L 701.993295 210.953394 
L 710.447841 196.949725 
L 718.902386 206.990092 
L 727.356932 213.331376 
L 735.811477 198.535046 
L 744.266023 208.839633 
L 752.720568 196.421284 
L 761.175114 194.307523 
L 769.629659 210.160734 
L 778.084205 208.575413 
L 786.53875 200.120367 
L 794.993295 203.026789 
L 803.447841 192.722202 
L 811.902386 210.953394 
L 820.356932 204.08367 
L 828.811477 194.043303 
L 837.266023 199.856147 
L 845.720568 212.010275 
L 854.175114 189.55156 
L 862.629659 204.08367 
L 871.084205 187.702018 
L 879.53875 212.010275 
" style="fill:none;stroke:#f28037;stroke-linecap:square;stroke-opacity:0.4;stroke-width:1.5;"/>
   </g>
   <g id="line2d_10">
    <path clip-path="url(#p06a33ab0f9)" d="M 42.53875 213.595596 
L 50.993295 213.595596 
L 59.447841 213.067156 
L 67.902386 212.802936 
L 76.356932 212.802936 
L 84.811477 213.331376 
L 93.266023 212.274495 
L 101.720568 212.538716 
L 110.175114 213.595596 
L 118.629659 211.481835 
L 127.084205 212.538716 
L 135.53875 211.481835 
L 143.993295 212.538716 
L 152.447841 213.331376 
L 160.902386 210.160734 
L 169.356932 210.953394 
L 177.811477 210.689174 
L 186.266023 212.538716 
L 194.720568 210.953394 
L 203.175114 210.953394 
L 211.629659 211.481835 
L 220.084205 209.896514 
L 228.53875 210.689174 
L 236.993295 213.595596 
L 245.447841 210.953394 
L 253.902386 212.538716 
L 262.356932 213.067156 
L 270.811477 213.331376 
L 279.266023 210.424954 
L 287.720568 210.424954 
L 296.175114 206.990092 
L 304.629659 212.010275 
L 313.084205 208.839633 
L 321.53875 205.933211 
L 329.993295 213.595596 
L 338.447841 205.14055 
L 346.902386 204.34789 
L 355.356932 207.254312 
L 363.811477 213.067156 
L 372.266023 208.046972 
L 380.720568 211.746055 
L 389.175114 210.689174 
L 397.629659 213.067156 
L 406.084205 208.046972 
L 414.53875 209.103853 
L 422.993295 206.461651 
L 431.447841 211.481835 
L 439.902386 204.08367 
L 448.356932 211.217615 
L 456.811477 212.538716 
L 465.266023 202.498349 
L 473.720568 202.234128 
L 482.175114 208.575413 
L 490.629659 211.746055 
L 499.084205 204.61211 
L 507.53875 213.067156 
L 515.993295 202.234128 
L 524.447841 202.234128 
L 532.902386 205.668991 
L 541.356932 205.404771 
L 549.811477 205.14055 
L 558.266023 208.839633 
L 566.720568 209.896514 
L 575.175114 213.067156 
L 583.629659 197.478165 
L 592.084205 200.120367 
L 600.53875 211.746055 
L 608.993295 196.421284 
L 617.447841 208.311193 
L 625.902386 210.689174 
L 634.356932 207.518532 
L 642.811477 198.799266 
L 651.266023 207.254312 
L 659.720568 208.575413 
L 668.175114 201.177248 
L 676.629659 198.006606 
L 685.084205 205.14055 
L 693.53875 204.34789 
L 701.993295 213.067156 
L 710.447841 211.746055 
L 718.902386 193.514862 
L 727.356932 211.217615 
L 735.811477 213.595596 
L 744.266023 207.254312 
L 752.720568 195.364404 
L 761.175114 197.478165 
L 769.629659 203.026789 
L 778.084205 212.538716 
L 786.53875 205.668991 
L 794.993295 204.34789 
L 803.447841 213.331376 
L 811.902386 198.535046 
L 820.356932 205.14055 
L 828.811477 204.87633 
L 837.266023 204.08367 
L 845.720568 188.758899 
L 854.175114 207.782752 
L 862.629659 206.197431 
L 871.084205 203.555229 
L 879.53875 203.555229 
" style="fill:none;stroke:#f28037;stroke-linecap:square;stroke-opacity:0.6;stroke-width:1.5;"/>
   </g>
   <g id="line2d_11">
    <path clip-path="url(#p06a33ab0f9)" d="M 42.53875 213.595596 
L 50.993295 213.331376 
L 59.447841 213.067156 
L 67.902386 213.067156 
L 76.356932 213.067156 
L 84.811477 213.067156 
L 93.266023 212.010275 
L 101.720568 211.746055 
L 110.175114 212.010275 
L 118.629659 212.538716 
L 127.084205 213.331376 
L 135.53875 213.595596 
L 143.993295 213.595596 
L 152.447841 211.481835 
L 160.902386 213.067156 
L 169.356932 210.953394 
L 177.811477 212.274495 
L 186.266023 210.424954 
L 194.720568 210.160734 
L 203.175114 212.802936 
L 211.629659 210.424954 
L 220.084205 208.311193 
L 228.53875 209.103853 
L 236.993295 213.595596 
L 245.447841 212.538716 
L 253.902386 212.538716 
L 262.356932 210.160734 
L 270.811477 213.067156 
L 279.266023 209.896514 
L 287.720568 212.274495 
L 296.175114 212.802936 
L 304.629659 209.896514 
L 313.084205 206.197431 
L 321.53875 212.538716 
L 329.993295 210.424954 
L 338.447841 207.782752 
L 346.902386 212.010275 
L 355.356932 209.103853 
L 363.811477 208.311193 
L 372.266023 209.368073 
L 380.720568 205.404771 
L 389.175114 203.81945 
L 397.629659 207.782752 
L 406.084205 213.595596 
L 414.53875 206.725872 
L 422.993295 209.632294 
L 431.447841 202.498349 
L 439.902386 210.424954 
L 448.356932 205.404771 
L 456.811477 203.291009 
L 465.266023 213.331376 
L 473.720568 208.046972 
L 482.175114 212.802936 
L 490.629659 203.026789 
L 499.084205 199.327706 
L 507.53875 208.311193 
L 515.993295 208.046972 
L 524.447841 207.518532 
L 532.902386 201.441468 
L 541.356932 205.933211 
L 549.811477 207.518532 
L 558.266023 202.234128 
L 566.720568 206.725872 
L 575.175114 210.160734 
L 583.629659 210.160734 
L 592.084205 206.461651 
L 600.53875 197.478165 
L 608.993295 200.913028 
L 617.447841 209.103853 
L 625.902386 208.839633 
L 634.356932 197.213945 
L 642.811477 213.331376 
L 651.266023 203.81945 
L 659.720568 197.742385 
L 668.175114 207.782752 
L 676.629659 201.969908 
L 685.084205 213.595596 
L 693.53875 204.87633 
L 701.993295 195.100183 
L 710.447841 197.213945 
L 718.902386 195.100183 
L 727.356932 213.595596 
L 735.811477 204.08367 
L 744.266023 210.953394 
L 752.720568 211.481835 
L 761.175114 212.010275 
L 769.629659 197.742385 
L 778.084205 191.665321 
L 786.53875 198.006606 
L 794.993295 208.575413 
L 803.447841 199.591927 
L 811.902386 193.250642 
L 820.356932 212.538716 
L 828.811477 212.010275 
L 837.266023 196.949725 
L 845.720568 211.746055 
L 854.175114 190.34422 
L 862.629659 196.685505 
L 871.084205 205.933211 
L 879.53875 210.424954 
" style="fill:none;stroke:#f28037;stroke-linecap:square;stroke-opacity:0.8;stroke-width:1.5;"/>
   </g>
   <g id="line2d_12">
    <path clip-path="url(#p06a33ab0f9)" d="M 42.53875 160.75156 
L 50.993295 160.75156 
L 59.447841 160.223119 
L 67.902386 159.958899 
L 76.356932 159.958899 
L 84.811477 160.487339 
L 93.266023 159.166239 
L 101.720568 159.430459 
L 110.175114 160.223119 
L 118.629659 160.223119 
L 127.084205 158.109358 
L 135.53875 160.223119 
L 143.993295 160.75156 
L 152.447841 159.694679 
L 160.902386 158.109358 
L 169.356932 157.052477 
L 177.811477 158.637798 
L 186.266023 159.694679 
L 194.720568 156.524037 
L 203.175114 160.487339 
L 211.629659 158.373578 
L 220.084205 160.75156 
L 228.53875 158.373578 
L 236.993295 158.109358 
L 245.447841 155.731376 
L 253.902386 160.223119 
L 262.356932 160.223119 
L 270.811477 159.958899 
L 279.266023 154.410275 
L 287.720568 157.052477 
L 296.175114 155.731376 
L 304.629659 158.902018 
L 313.084205 154.146055 
L 321.53875 156.259817 
L 329.993295 158.373578 
L 338.447841 152.560734 
L 346.902386 153.881835 
L 355.356932 156.788257 
L 363.811477 154.410275 
L 372.266023 157.580917 
L 380.720568 150.446972 
L 389.175114 153.881835 
L 397.629659 150.446972 
L 406.084205 149.654312 
L 414.53875 153.089174 
L 422.993295 153.617615 
L 431.447841 158.109358 
L 439.902386 150.975413 
L 448.356932 157.845138 
L 456.811477 153.881835 
L 465.266023 210.953394 
L 473.720568 213.595596 
L 482.175114 213.595596 
L 490.629659 218.88 
L 499.084205 160.75156 
L 507.53875 160.487339 
L 515.993295 160.75156 
L 524.447841 159.958899 
L 532.902386 159.694679 
L 541.356932 159.430459 
L 549.811477 160.75156 
L 558.266023 160.487339 
L 566.720568 158.902018 
L 575.175114 159.430459 
L 583.629659 158.637798 
L 592.084205 158.637798 
L 600.53875 160.223119 
L 608.993295 158.637798 
L 617.447841 159.166239 
L 625.902386 157.316697 
L 634.356932 159.430459 
L 642.811477 157.316697 
L 651.266023 160.487339 
L 659.720568 159.958899 
L 668.175114 156.524037 
L 676.629659 155.202936 
L 685.084205 155.467156 
L 693.53875 157.052477 
L 701.993295 159.694679 
L 710.447841 154.410275 
L 718.902386 157.316697 
L 727.356932 158.902018 
L 735.811477 160.223119 
L 744.266023 157.845138 
L 752.720568 157.580917 
L 761.175114 158.109358 
L 769.629659 154.938716 
L 778.084205 159.430459 
L 786.53875 153.617615 
L 794.993295 156.788257 
L 803.447841 153.089174 
L 811.902386 158.637798 
L 820.356932 154.146055 
L 828.811477 155.202936 
L 837.266023 150.711193 
L 845.720568 152.296514 
L 854.175114 149.654312 
L 862.629659 153.617615 
L 871.084205 153.089174 
L 879.53875 153.617615 
" style="fill:none;stroke:#f28037;stroke-linecap:square;stroke-width:1.5;"/>
   </g>
   <g id="line2d_13">
    <path clip-path="url(#p06a33ab0f9)" d="M 42.53875 81.485505 
L 50.993295 81.221284 
L 59.447841 79.635963 
L 67.902386 78.579083 
L 76.356932 79.107523 
L 84.811477 80.428624 
L 93.266023 75.936881 
L 101.720568 77.257982 
L 110.175114 78.843303 
L 118.629659 76.465321 
L 127.084205 76.993761 
L 135.53875 77.786422 
L 143.993295 78.050642 
L 152.447841 76.465321 
L 160.902386 72.237798 
L 169.356932 69.331376 
L 177.811477 74.61578 
L 186.266023 72.766239 
L 194.720568 69.859817 
L 203.175114 75.40844 
L 211.629659 70.388257 
L 220.084205 70.388257 
L 228.53875 70.916697 
L 236.993295 76.993761 
L 245.447841 70.388257 
L 253.902386 75.672661 
L 262.356932 70.388257 
L 270.811477 74.88 
L 279.266023 61.14055 
L 287.720568 67.746055 
L 296.175114 62.461651 
L 304.629659 69.067156 
L 313.084205 59.81945 
L 321.53875 67.481835 
L 329.993295 71.445138 
L 338.447841 54.006606 
L 346.902386 58.234128 
L 355.356932 61.14055 
L 363.811477 65.632294 
L 372.266023 59.81945 
L 380.720568 50.571743 
L 389.175114 52.949725 
L 397.629659 58.234128 
L 406.084205 58.234128 
L 414.53875 56.384587 
L 422.993295 51.892844 
L 431.447841 62.725872 
L 439.902386 50.835963 
L 448.356932 65.632294 
L 456.811477 60.61211 
L 465.266023 116.362569 
L 473.720568 107.379083 
L 482.175114 117.68367 
L 490.629659 122.175413 
L 499.084205 56.384587 
L 507.53875 72.502018 
L 515.993295 54.006606 
L 524.447841 63.254312 
L 532.902386 59.555229 
L 541.356932 61.14055 
L 549.811477 56.648807 
L 558.266023 55.856147 
L 566.720568 64.046972 
L 575.175114 73.294679 
L 583.629659 47.136881 
L 592.084205 42.116697 
L 600.53875 62.725872 
L 608.993295 41.059817 
L 617.447841 68.802936 
L 625.902386 68.274495 
L 634.356932 49.514862 
L 642.811477 53.478165 
L 651.266023 60.08367 
L 659.720568 43.966239 
L 668.175114 56.648807 
L 676.629659 44.230459 
L 685.084205 60.61211 
L 693.53875 43.437798 
L 701.993295 58.762569 
L 710.447841 40.267156 
L 718.902386 32.868991 
L 727.356932 76.993761 
L 735.811477 56.384587 
L 744.266023 64.839633 
L 752.720568 40.795596 
L 761.175114 41.852477 
L 769.629659 45.81578 
L 778.084205 52.157064 
L 786.53875 37.360734 
L 794.993295 52.685505 
L 803.447841 38.681835 
L 811.902386 41.324037 
L 820.356932 55.856147 
L 828.811477 46.08 
L 837.266023 31.54789 
L 845.720568 44.758899 
L 854.175114 17.28 
L 862.629659 40.531376 
L 871.084205 30.226789 
L 879.53875 59.555229 
" style="fill:none;stroke:#000000;stroke-linecap:square;stroke-width:1.5;"/>
   </g>
   <g id="patch_3">
    <path d="M 42.53875 228.96 
L 42.53875 7.2 
" style="fill:none;stroke:#000000;stroke-linecap:square;stroke-linejoin:miter;stroke-width:0.8;"/>
   </g>
   <g id="patch_4">
    <path d="M 879.53875 228.96 
L 879.53875 7.2 
" style="fill:none;stroke:#000000;stroke-linecap:square;stroke-linejoin:miter;stroke-width:0.8;"/>
   </g>
   <g id="patch_5">
    <path d="M 42.53875 228.96 
L 879.53875 228.96 
" style="fill:none;stroke:#000000;stroke-linecap:square;stroke-linejoin:miter;stroke-width:0.8;"/>
   </g>
   <g id="patch_6">
    <path d="M 42.53875 7.2 
L 879.53875 7.2 
" style="fill:none;stroke:#000000;stroke-linecap:square;stroke-linejoin:miter;stroke-width:0.8;"/>
   </g>
  </g>
 </g>
 <defs>
  <clipPath id="p06a33ab0f9">
   <rect height="221.76" width="837" x="42.53875" y="7.2"/>
  </clipPath>
 </defs>
</svg>
